<svg xmlns="http://www.w3.org/2000/svg" xmlns:xlink="http://www.w3.org/1999/xlink" width="818.162" height="424.496" viewBox="0 0 818.162 424.496"><defs><linearGradient id="a" x1="0.5" x2="0.5" y2="1" gradientUnits="objectBoundingBox"><stop offset="0" stop-color="#5688ff"/><stop offset="1" stop-color="#5e32db"/></linearGradient><clipPath id="b"><circle cx="60.088" cy="60.088" r="60.088" transform="translate(395.423 290.759)" fill="none"/></clipPath></defs><g transform="translate(-720.374 -355)"><path d="M175.092,387.477a83.166,83.166,0,0,1,15.817,3.2l0-.007c.071.024.139.043.209.066.19.059.378.12.568.181,28.707,9.421,41.89,7.654,53.177,4.465,30.481-8.611,48.553-45.681,97.92-38.5,20.939,3.043,37.786,7.181,50.915,15.6l-.017-.037c.091.071.183.13.275.2,1.883,1.215,3.718,2.451,5.453,3.724,25.677,15.416,51.255-4.679,58.6-9.231.539-.36,1.1-3.218,1.648-3.575.295-.2.458-.319.458-.319l0,.024c32.172-20.857,83.344-41.984,132.675-36.8,84.761,8.912,118.872,97.333,118.872,97.333H78.274C88.168,402.9,127.743,382.5,175.092,387.477Z" transform="translate(759.342 299.861)" opacity="0.81" fill="url(#a)"/><g transform="translate(779.342 315.557)"><path d="M1.936,0H47.87a1.935,1.935,0,0,1,1.935,1.935v12.77a1.935,1.935,0,0,1-1.935,1.935H1.935A1.935,1.935,0,0,1,0,14.705V1.936A1.936,1.936,0,0,1,1.936,0Z" transform="translate(156.076 162.633) rotate(180)" fill="#8155ff"/><line x2="32.625" transform="translate(116.025 152.454)" fill="none" stroke="#fff" stroke-miterlimit="10" stroke-width="0.624"/><line x2="9.603" transform="translate(116.025 156.171)" fill="none" stroke="#fff" stroke-miterlimit="10" stroke-width="0.624"/><path d="M150.147,160.419v7.526l-9.593-7.526Z" fill="#8155ff"/></g><ellipse cx="5.58" cy="5.658" rx="5.58" ry="5.658" transform="translate(1420.664 544.745)" fill="none" stroke="#8155ff" stroke-miterlimit="10" stroke-width="1.089"/><ellipse cx="7.97" cy="8.083" rx="7.97" ry="8.083" transform="translate(857 578.993)" fill="none" stroke="#fdb9b9" stroke-miterlimit="10" stroke-width="1.089"/><path d="M388.976,103.118a3.036,3.036,0,1,1-3.036-3.078A3.057,3.057,0,0,1,388.976,103.118Z" transform="translate(779.342 314.557)" fill="none" stroke="#8155ff" stroke-miterlimit="10" stroke-width="1.089"/><path d="M127.6,86.591H257.685s-.629-5.167-15.082-9.3-24.823,6.458-41.161,0-25.005-15.724-46.056-10.557S127.6,86.591,127.6,86.591Z" transform="translate(779.342 314.557)" fill="#8155ff" stroke="#8155ff" stroke-linecap="round" stroke-linejoin="round" stroke-width="1.103" opacity="0.2"/><path d="M127.6,86.591H257.685s-.629-5.167-15.082-9.3-24.823,6.458-41.161,0-25.005-15.724-46.056-10.557S127.6,86.591,127.6,86.591Z" transform="translate(779.342 318.557)" fill="#8155ff" stroke="#8155ff" stroke-linecap="round" stroke-linejoin="round" stroke-width="1.103" opacity="0.56"/><path d="M539.95,132.206h67.269s-.325-3.25-7.8-5.85-12.837,4.062-21.286,0-12.931-9.89-23.817-6.64A22.687,22.687,0,0,0,539.95,132.206Z" transform="translate(779.342 314.557)" fill="#fdb9b9" stroke="#fdb9b9" stroke-linecap="round" stroke-linejoin="round" stroke-width="1.103" opacity="0.53"/><path d="M539.95,132.206h67.269s-.325-3.25-7.8-5.85-12.837,4.062-21.286,0-12.931-9.89-23.817-6.64A22.687,22.687,0,0,0,539.95,132.206Z" transform="translate(779.342 318.557)" fill="#fdb9b9" stroke="#fdb9b9" stroke-linecap="round" stroke-linejoin="round" stroke-width="1.103"/><circle cx="22.049" cy="22.049" r="22.049" transform="matrix(0.159, -0.987, 0.987, 0.159, 1236.594, 398.537)" fill="#fdb9b9"/><circle cx="12.049" cy="12.049" r="12.049" transform="matrix(0.159, -0.987, 0.987, 0.159, 1510.911, 588.255)" fill="#fdb9b9" opacity="0.33"/><circle cx="12.049" cy="12.049" r="12.049" transform="matrix(0.159, -0.987, 0.987, 0.159, 720.374, 714.255)" fill="#fdb9b9" opacity="0.33"/><g transform="translate(735.342 356.861)"><rect width="228.904" height="229.634" transform="translate(241.375 193.001)" fill="#fff"/><path d="M470.279,156.879V193h-228.9V156.879a12.994,12.994,0,0,1,12.994-12.994H457.286A12.994,12.994,0,0,1,470.279,156.879Z" fill="#8155ff"/><circle cx="10.767" cy="10.767" r="10.767" transform="translate(424.035 155.547)" fill="#2b4183"/><path d="M434.8,170.358h0a6.171,6.171,0,0,0,6.171-6.171V136.31a6.171,6.171,0,0,0-6.171-6.171h0a6.171,6.171,0,0,0-6.171,6.171v27.877A6.171,6.171,0,0,0,434.8,170.358Z" fill="#ffcb2d"/><circle cx="10.767" cy="10.767" r="10.767" transform="translate(348.036 155.547)" fill="#2b4183"/><path d="M358.8,170.358h0a6.171,6.171,0,0,0,6.171-6.171V136.31a6.171,6.171,0,0,0-6.171-6.171h0a6.171,6.171,0,0,0-6.172,6.171v27.877A6.171,6.171,0,0,0,358.8,170.358Z" fill="#ffcb2d"/><circle cx="10.767" cy="10.767" r="10.767" transform="translate(272.038 155.547)" fill="#2b4183"/><path d="M282.8,170.358h0a6.171,6.171,0,0,0,6.171-6.171V136.31a6.171,6.171,0,0,0-6.171-6.171h0a6.171,6.171,0,0,0-6.171,6.171v27.877A6.171,6.171,0,0,0,282.8,170.358Z" fill="#ffcb2d"/><rect width="43.523" height="43.523" transform="translate(436.453 273.427) rotate(180)" fill="none" stroke="#f0e0df" stroke-miterlimit="10" stroke-width="2.213"/><rect width="43.523" height="43.523" transform="translate(378.547 273.427) rotate(180)" fill="none" stroke="#f0e0df" stroke-miterlimit="10" stroke-width="2.213"/><rect width="43.523" height="43.523" transform="translate(320.641 273.427) rotate(180)" fill="none" stroke="#f0e0df" stroke-miterlimit="10" stroke-width="2.213"/><rect width="43.523" height="43.523" transform="translate(436.453 328.674) rotate(180)" fill="none" stroke="#f0e0df" stroke-miterlimit="10" stroke-width="2.213"/><rect width="43.523" height="43.523" transform="translate(378.547 328.674) rotate(180)" fill="none" stroke="#f0e0df" stroke-miterlimit="10" stroke-width="2.213"/><rect width="43.523" height="43.523" transform="translate(320.641 328.674) rotate(180)" fill="#f88aa0"/><line x2="12.067" y2="12.438" transform="translate(292.846 300.693)" fill="none" stroke="#fff" stroke-miterlimit="10" stroke-width="2.017"/><line x1="12.067" y2="12.438" transform="translate(292.846 300.693)" fill="none" stroke="#fff" stroke-miterlimit="10" stroke-width="2.017"/><rect width="43.523" height="43.523" transform="translate(436.453 383.921) rotate(180)" fill="none" stroke="#f0e0df" stroke-miterlimit="10" stroke-width="2.213"/><rect width="43.523" height="43.523" transform="translate(378.547 383.921) rotate(180)" fill="none" stroke="#f0e0df" stroke-miterlimit="10" stroke-width="2.213"/><rect width="43.523" height="43.523" transform="translate(320.641 383.921) rotate(180)" fill="none" stroke="#f0e0df" stroke-miterlimit="10" stroke-width="2.213"/><rect width="21.181" height="13.948" transform="translate(445.171 271.32)" fill="#ffa80a"/><path d="M469.614,274.938H441.908a5.712,5.712,0,0,1-5.712-5.713h0a5.712,5.712,0,0,1,5.712-5.712h27.706a5.712,5.712,0,0,1,5.712,5.712h0A5.713,5.713,0,0,1,469.614,274.938Z" fill="#ffcb2d"/><rect width="16.888" height="11.912" transform="translate(392.462 304.424) rotate(-45)" fill="#ffa80a"/><path d="M408.17,291.989l-16.682,16.683a4.305,4.305,0,0,1-6.088,0h0a4.3,4.3,0,0,1,0-6.089L402.082,285.9a4.305,4.305,0,0,1,6.088,0h0A4.305,4.305,0,0,1,408.17,291.989Z" fill="#ffcb2d"/><circle cx="71.589" cy="71.589" r="71.589" transform="translate(383.923 279.259)" fill="#f67b91"/><circle cx="67.738" cy="67.738" r="67.738" transform="translate(387.774 283.11)" fill="#f88aa0"/><circle cx="60.088" cy="60.088" r="60.088" transform="translate(395.423 290.759)" fill="#f6f6f6"/><g opacity="0.71"><g clip-path="url(#b)"><path d="M389.772,303.309,480.849,444.44,522,409.054l-90.11-126.319Z" fill="#fff"/><path d="M438.309,269.311l91.078,141.132,5.294-17.693-90.11-126.319Z" fill="#fff"/></g></g><path d="M455.811,304.3a1.512,1.512,0,0,1-1.512-1.512v-3.548a1.511,1.511,0,1,1,3.023,0v3.548A1.511,1.511,0,0,1,455.811,304.3Z" fill="#8054ff"/><path d="M455.811,404.7a1.511,1.511,0,0,1-1.512-1.511v-3.549a1.511,1.511,0,1,1,3.023,0v3.549A1.51,1.51,0,0,1,455.811,404.7Z" fill="#8054ff"/><path d="M421.57,318.482a1.508,1.508,0,0,1-1.069-.442l-2.51-2.51a1.512,1.512,0,0,1,2.138-2.138l2.51,2.51a1.511,1.511,0,0,1-1.069,2.58Z" fill="#8054ff"/><path d="M492.561,389.473a1.508,1.508,0,0,1-1.069-.442l-2.509-2.51a1.511,1.511,0,1,1,2.137-2.138l2.51,2.51a1.511,1.511,0,0,1-1.069,2.58Z" fill="#8054ff"/><path d="M419.06,389.473a1.511,1.511,0,0,1-1.069-2.58l2.51-2.51a1.512,1.512,0,1,1,2.138,2.138l-2.51,2.51A1.507,1.507,0,0,1,419.06,389.473Z" fill="#8054ff"/><path d="M490.051,318.482a1.511,1.511,0,0,1-1.068-2.58l2.509-2.51a1.512,1.512,0,0,1,2.138,2.138l-2.51,2.51A1.507,1.507,0,0,1,490.051,318.482Z" fill="#8054ff"/><path d="M407.387,352.723h-3.549a1.511,1.511,0,0,1,0-3.023h3.549a1.511,1.511,0,0,1,0,3.023Z" fill="#8054ff"/><path d="M507.783,352.723h-3.548a1.511,1.511,0,1,1,0-3.023h3.548a1.511,1.511,0,1,1,0,3.023Z" fill="#8054ff"/><path d="M459.422,350.64H452.2V319.327a3.612,3.612,0,0,1,3.612-3.611h0a3.611,3.611,0,0,1,3.611,3.611Z" fill="#8054ff"/><circle cx="8.284" cy="8.284" r="8.284" transform="translate(447.526 342.356)" fill="#2b4183"/></g><g transform="translate(732.342 321.861)"><path d="M208.668,276.2l13.084,57.7a15.57,15.57,0,0,1-5.53,14.387l-39.061,30.545.722-28.127,19.51-15.921-20.232-60.169Z" fill="#7041fd"/><path d="M158.122,379.068l18.808-9.839L169.5,358.747l-20.427,11.108,6.518,8.266Z" fill="#fa849b"/><path d="M153.646,365.446s3.178,11.649,12.329,11L169.5,404.2l-27-34.241Z" fill="#181f42"/><rect width="43.606" height="4.119" transform="matrix(0.619, 0.785, -0.785, 0.619, 142.502, 369.957)" fill="#fff"/><path d="M166.436,380.074a16.386,16.386,0,0,0-5.26-.531" fill="none" stroke="#fff" stroke-linecap="round" stroke-linejoin="round" stroke-width="1.504"/><path d="M167.218,384.136a16.386,16.386,0,0,0-5.26-.531" fill="none" stroke="#fff" stroke-linecap="round" stroke-linejoin="round" stroke-width="1.504"/><path d="M168,388.2a16.386,16.386,0,0,0-5.26-.531" fill="none" stroke="#fff" stroke-linecap="round" stroke-linejoin="round" stroke-width="1.504"/><path d="M174.91,413.059l1.9-20.861-12.829-.658-1.909,22.918H172.6Z" fill="#fa849b"/><path d="M160.433,408.139s11.115,4.718,16.271-2.87l23.977,14.414H157.075Z" fill="#181f42"/><rect width="43.606" height="4.119" transform="translate(157.075 419.684)" fill="#fff"/><path d="M179.839,407.154a16.364,16.364,0,0,0-3.674,3.8" fill="none" stroke="#fff" stroke-linecap="round" stroke-linejoin="round" stroke-width="1.504"/><path d="M183.513,409.055a16.39,16.39,0,0,0-3.674,3.8" fill="none" stroke="#fff" stroke-linecap="round" stroke-linejoin="round" stroke-width="1.504"/><path d="M187.187,410.956a16.391,16.391,0,0,0-3.674,3.8" fill="none" stroke="#fff" stroke-linecap="round" stroke-linejoin="round" stroke-width="1.504"/><path d="M165.473,274.791l-5.885,121.684H181.91l16.258-121.286Z" fill="#8155ff"/><path d="M208.668,276.2h0l-13.529,21.209-2.827-21.744Z" fill="#8155ff"/><path d="M266.681,255.588l-13.331,1.044,2.384-13.393,13.925,1.172Z" fill="#fa849b"/><path d="M277.9,254.94a9.346,9.346,0,1,1,1.016-13.179A9.346,9.346,0,0,1,277.9,254.94Z" fill="#fa849b"/><path d="M272.3,238.515s-1.7-3.91-5.654-1.014-7.469,8.825-1.926,16.423Z" fill="#fa849b"/><path d="M272.3,238.463l10.737-2.7a1.76,1.76,0,0,1,2.186,1.062h0a1.517,1.517,0,0,1-.805,1.9L273.515,243.6Z" fill="#fa849b"/><path d="M216.341,219.833,233.952,247.7a9.741,9.741,0,0,1-3.178,12.9h0a9.74,9.74,0,0,1-13.46-2.793L197.9,231.034a10.8,10.8,0,0,1,1.381-13.576h0A10.8,10.8,0,0,1,216.341,219.833Z" fill="#ffcd2e"/><path d="M210.83,248.984l1.039-15.255,3.783,21.912Z" fill="#f2bb19"/><path d="M224.81,244.909l38.773-4.555-.122,17.707-36.06,4.647a9,9,0,0,1-10.71-9.168h0A9,9,0,0,1,224.81,244.909Z" fill="#ffcd2e"/><path d="M157.709,297.408s4.324.348,3.618-4.6-4.353-10.938-13.834-9.6Z" fill="#fa849b"/><rect width="43.523" height="43.523" transform="translate(169.943 337.036) rotate(180)" fill="#ffcd2e"/><rect width="43.523" height="43.523" transform="translate(171.955 337.036) rotate(180)" fill="#ffcd2e"/><path d="M140.268,294.572a9.517,9.517,0,1,1,11.355,7.225A9.516,9.516,0,0,1,140.268,294.572Z" fill="#fa849b"/><path d="M158.848,247.317l-.427,39.037-17.1-.8-.455-37.933a9,9,0,0,1,10.459-9.454h0A9,9,0,0,1,158.848,247.317Z" fill="#ffcd2e"/><path d="M180.811,230.971l-23.59,23.024a9.74,9.74,0,0,1-13.278-.424h0a9.741,9.741,0,0,1-.069-13.747l22.144-24.559a10.8,10.8,0,0,1,13.567-1.475h0A10.8,10.8,0,0,1,180.811,230.971Z" fill="#ffcd2e"/><path d="M207.137,214.26l-33.545-2.206c-3.024-.2-8.418,5.294-8.1,8.308l-.019,54.429,43.195,1.413,4.387-55.248A6.344,6.344,0,0,0,207.137,214.26Z" fill="#ffcd2e"/><path d="M165.473,245.941l9.742-9.508-9.738,25.752Z" fill="#f2bb19"/><path d="M201.67,191.738a4.543,4.543,0,0,0,4.036,4.969,4.493,4.493,0,0,0,4.816-4.174,4.54,4.54,0,0,0-4.036-4.968A4.493,4.493,0,0,0,201.67,191.738Z" fill="#e6728c"/><path d="M199.091,202.507l-.205,10.958c-.064,3.849-2.4,5.859-6.064,5.753h0c-3.131-.091-6.543-1.674-6.342-5.064l1.126-17.227Z" fill="#fa849b"/><path d="M198.979,209.794s-8.941.586-11.524-9.517c-.814-3.182,11.678,1.107,11.678,1.107Z" fill="#312725"/><path d="M195.742,205.637h0c6.258.131,11.517-4.866,11.8-10.139l.529-11.035a12.132,12.132,0,0,0-10.821-12.884h0c-6.537-.587-13.449,4.307-14.025,11.058l-.308,8.6A13.769,13.769,0,0,0,195.742,205.637Z" fill="#f8879d"/><path d="M201.031,190.662l.292,3.607-1.548.031" fill="none" stroke="#312725" stroke-linecap="round" stroke-linejoin="round" stroke-width="0.597"/><path d="M194.244,183.355s2.567-.171,2.574.907c0,0-.015.729-2.255.834s-2.817-.075-3.009-.764S193.042,183.341,194.244,183.355Z" fill="#312725"/><path d="M204.955,185.886s-2.112-.263-2.3.746c0,0-.113.683,1.737.871s2.457-.045,2.642-.6C207.24,186.285,205.96,185.92,204.955,185.886Z" fill="#312725"/><path d="M203.34,189.987a1.077,1.077,0,1,0,1.13-1.054A1.1,1.1,0,0,0,203.34,189.987Z" fill="#312725"/><path d="M193.919,189.495a1.077,1.077,0,1,0,1.13-1.054A1.1,1.1,0,0,0,193.919,189.495Z" fill="#312725"/><path d="M196.512,195.859a3.567,3.567,0,0,0,3.594,1.178" fill="none" stroke="#312725" stroke-linecap="round" stroke-linejoin="round" stroke-width="0.597"/><path d="M205.491,166.22c-2.4-1.031-8.515-2.165-9.865,3.244-6.088-.465-15.775-.351-16.748,4.927-1.43,7.754,4.074,15.438,4.074,15.438l1.549.789s3.932-2.05,2.916-11.327c0,0,14.07,3.393,20.67-.177S212.69,169.316,205.491,166.22Z" fill="#312725"/><path d="M177.167,190.914a4.5,4.5,0,0,0,4,4.92,4.449,4.449,0,0,0,4.769-4.133,4.5,4.5,0,0,0-4-4.919A4.449,4.449,0,0,0,177.167,190.914Z" fill="#f8879d"/><path d="M182.954,192.529s.28-3.282-2.8-3.038" fill="none" stroke="#312725" stroke-linecap="round" stroke-linejoin="round" stroke-width="0.597"/><path d="M182.241,212.623l20.077,1.32s.636,6.92-8.294,6.443C183.976,219.849,182.241,212.623,182.241,212.623Z" fill="#fa849b"/></g><g transform="translate(732.342 321.861)"><path d="M602.1,380l-19.795-9.228,7.141-11.122,21.518,10.456-6.311,8.8Z" fill="#fa849b"/><path d="M606.061,365.792s-2.719,12.123-12.155,11.885l-2.32,28.691L617.728,369.9Z" fill="#181f42"/><rect width="44.866" height="4.238" transform="translate(621.172 372.374) rotate(125.637)" fill="#fff"/><path d="M593.6,381.429a16.86,16.86,0,0,1,5.382-.793" fill="none" stroke="#fff" stroke-linecap="round" stroke-linejoin="round" stroke-width="1.548"/><path d="M592.99,385.641a16.859,16.859,0,0,1,5.382-.793" fill="none" stroke="#fff" stroke-linecap="round" stroke-linejoin="round" stroke-width="1.548"/><path d="M592.377,389.853a16.833,16.833,0,0,1,5.382-.793" fill="none" stroke="#fff" stroke-linecap="round" stroke-linejoin="round" stroke-width="1.548"/><path d="M556.157,259.5s-12.934,48.267-14.838,57.784-5.71,28.551,2.284,35.4,38.7,23.286,38.7,23.286l11.3-20.282-18.3-11Z" fill="#243b77"/><path d="M573.6,412.994l-4.034-21.464,13.2-.677,4.04,23.58H575.974Z" fill="#fa849b"/><path d="M587.455,407.931s-11.436,4.855-16.74-2.953l-24.67,14.831h44.866Z" fill="#181f42"/><rect width="44.866" height="4.238" transform="translate(590.911 424.047) rotate(180)" fill="#fff"/><path d="M567.488,406.918a16.832,16.832,0,0,1,3.781,3.912" fill="none" stroke="#fff" stroke-linecap="round" stroke-linejoin="round" stroke-width="1.548"/><path d="M563.708,408.874a16.842,16.842,0,0,1,3.78,3.912" fill="none" stroke="#fff" stroke-linecap="round" stroke-linejoin="round" stroke-width="1.548"/><path d="M559.928,410.83a16.843,16.843,0,0,1,3.78,3.912" fill="none" stroke="#fff" stroke-linecap="round" stroke-linejoin="round" stroke-width="1.548"/><path d="M556.157,259.5l-1.284,72.816a40.289,40.289,0,0,0,.621,7.791l10.818,56.157H588.95l-6.316-63.333c.268-11.649,4.132-24.694,5.578-38.9,0,0,4.438-26.351-7.729-34.4Z" fill="#2b4183"/><path d="M541.669,249.506l-37.012-13.542-4.3,7.206,36.083,19.124A8.254,8.254,0,0,0,547.5,253.1h0C546.967,250.2,544.452,250.5,541.669,249.506Z" fill="#fa849b"/><path d="M500.109,230.469a2.752,2.752,0,0,0-2.586-.807,1.637,1.637,0,0,0-1.041,2.554l.532.877c-1.189.455-3.64.57-8.127-3.962a2.262,2.262,0,0,0-2.771-.4,1.392,1.392,0,0,0-.422,1.823c.015.031.037.06.054.091a2.056,2.056,0,0,0-1.8.189,1.393,1.393,0,0,0-.422,1.824,1.816,1.816,0,0,0,.155.258,1.778,1.778,0,0,0-.845.292,1.394,1.394,0,0,0-.423,1.824,2.044,2.044,0,0,0,.385.533c.059.06.118.113.177.172-.027.016-.057.027-.083.045a1.391,1.391,0,0,0-.422,1.823,2.026,2.026,0,0,0,.385.534,26.222,26.222,0,0,0,3.67,3.125l0,0,.057.037a17.359,17.359,0,0,0,1.691,1.032c2.593,1.506,8.141.243,12.913,1.012l3.724-7.028Z" fill="#fa849b"/><rect width="44.621" height="44.621" transform="translate(504.909 214.804) rotate(113.638)" fill="#ffcd2e"/><path d="M500.719,231.212l-3.627-4.227a1.477,1.477,0,0,0-2.239,0h0a1.478,1.478,0,0,0-.2,1.633l1.828,3.6a10.035,10.035,0,0,0,2.159,9.148Z" fill="#fa849b"/><path d="M558.073,250.284,544.6,261.045a8.242,8.242,0,0,1-9.472.573h0c-4.17-2.573-6.718-4.948-3.715-8.819l14.8-15.009Z" fill="#fa849b"/><path d="M568.508,237.4s-1.791,8.843-12.419,16.867L539.705,238.8l13.258-14.775Z" fill="#7041fd"/><path d="M594.083,249.086l28.49,35.939,6.449-4.271s-16.349-30.437-23.946-40.038a8.247,8.247,0,0,0-14.192,2.315h0C589.867,245.8,592.186,246.822,594.083,249.086Z" fill="#fa849b"/><path d="M623.953,292.254a2.677,2.677,0,0,0,1.833,1.892,1.593,1.593,0,0,0,2.078-1.7l-.046-1c1.226.165,3.373,1.207,5.1,7.165a2.2,2.2,0,0,0,2.179,1.633,1.356,1.356,0,0,0,1.21-1.362c0-.033,0-.069-.005-.1a2,2,0,0,0,1.625.674,1.355,1.355,0,0,0,1.209-1.361,1.83,1.83,0,0,0-.013-.293,1.735,1.735,0,0,0,.858.144,1.356,1.356,0,0,0,1.209-1.362,1.956,1.956,0,0,0-.081-.635c-.022-.078-.048-.151-.071-.228.03,0,.061,0,.092,0a1.356,1.356,0,0,0,1.209-1.362,2.01,2.01,0,0,0-.081-.634,25.53,25.53,0,0,0-1.682-4.377h0l-.032-.059a17.061,17.061,0,0,0-.965-1.667c-1.514-2.493-6.841-3.995-10.56-6.871l-6.449,4.271Z" fill="#fa849b"/><path d="M589.834,226.931,602.8,238.3a8.241,8.241,0,0,1,2.23,9.223h0c-1.8,4.557-3.69,7.483-8.029,5.208L579.619,240.8Z" fill="#fa849b"/><path d="M573.146,219a34.54,34.54,0,0,1,20.883,9.219L585.2,244.636l-17.357-6.021Z" fill="#8155ff"/><path d="M559.095,219.978s-10.775,2.977-10.811,17.424c-.02,7.886,7.873,22.1,7.873,22.1l24.326.132s3.572-9.909,5.711-18.865S581.486,223.3,573.146,219Z" fill="#8155ff"/><path d="M585.2,244.636l-9.546-6.847,7.363,14.257Z" fill="#7041fd"/><path d="M565.228,224.6h0c3.375-.5,4.572-2.763,4.069-6.138l-3.751-19.339-10.179,1.629,2.84,18.65A6.177,6.177,0,0,0,565.228,224.6Z" fill="#f8879d"/><path d="M563.218,202.954s3.3,10.31-5.45,13.816l-.81-6.155,8.989-6.8" fill="#32292a"/><path d="M555.674,211.941h0c6.356-.6,11.073-5.689,10.535-11.362L564.451,182l-10.716.031c-3.949.374-9.383,5.612-9.049,9.137l1.869,11.533C546.946,206.827,550.331,212.447,555.674,211.941Z" fill="#f8879d"/><path d="M547.049,195.965l-2.436,6.222a.906.906,0,0,0,.937,1.344l4.19-.391Z" fill="#f8879d"/><path d="M549.182,193.075s-2.285.063-2.2,1.017c0,0,.074.643,2.063.549s2.485-.3,2.6-.928S550.244,192.961,549.182,193.075Z" fill="#312725"/><path d="M549.3,197.579a.957.957,0,1,1-1.087-.838A.975.975,0,0,1,549.3,197.579Z" fill="#312725"/><path d="M548.573,204.819a2.686,2.686,0,0,0,2.334-1.865" fill="none" stroke="#312725" stroke-linecap="round" stroke-linejoin="round" stroke-width="0.597"/><path d="M566.251,217.9l6.9,1.1s-7.244,11.736-14.373,8.921c-8.222-3.247,2.679-9.417,2.679-9.417Z" fill="#f8879d"/><path d="M563.356,196.81a8.872,8.872,0,0,1-6.407-6.423L542.7,193.2s-2.207-14.2,14.851-16.872c8.553-1.342,14.016,2.792,16.9,6.927a13.911,13.911,0,0,1,1.1,13.494,21.847,21.847,0,0,1-8.681,9.484l-1.317-7.106S564.314,197.055,563.356,196.81Z" fill="#32292a"/><path d="M570.192,195.786a4.536,4.536,0,0,1-4.481,4.56,4.489,4.489,0,0,1-4.4-4.6,4.537,4.537,0,0,1,4.481-4.561A4.488,4.488,0,0,1,570.192,195.786Z" fill="#f8879d"/><path d="M564.228,196.857s.031-3.322,3.1-2.784" fill="none" stroke="#312725" stroke-linecap="round" stroke-linejoin="round" stroke-width="0.603"/><path d="M592.88,177.585a11.082,11.082,0,1,1-12.772-9.082A11.082,11.082,0,0,1,592.88,177.585Z" fill="#32292a"/></g><g transform="translate(785.552 458.932) rotate(39)" fill="none" opacity="0.33"><path d="M7,0l7,12H0Z" stroke="none"/><path d="M 7 1.984635353088379 L 1.741037368774414 11 L 12.25896263122559 11 L 7 1.984635353088379 M 7 0 L 14 12 L 0 12 L 7 0 Z" stroke="none" fill="#8155ff"/></g><g transform="translate(1496.214 686.525) rotate(39)" fill="none" opacity="0.33"><path d="M8,0l8,14H0Z" stroke="none"/><path d="M 7.999999523162842 2.015560150146484 L 1.723176956176758 13 L 14.27682209014893 13 L 7.999999523162842 2.015560150146484 M 7.999999523162842 0 L 16 14 L -9.5367431640625e-07 14 L 7.999999523162842 0 Z" stroke="none" fill="#8155ff"/></g></g></svg>