<svg xmlns="http://www.w3.org/2000/svg" width="645.047" height="500.82" viewBox="0 0 645.047 500.82"><g transform="translate(-873.863 -316.18)"><g transform="translate(956.937 411.106)"><rect width="368.235" height="277.875" transform="translate(0 14.069)" fill="#451fad"/><rect width="356.006" height="260.454" transform="translate(6.115 25.619)" fill="#ebe8fa"/><g transform="translate(28.536 82.042)"><rect width="31.114" height="6.693" rx="2.463" fill="#b6c3f4"/><rect width="31.114" height="6.693" rx="2.463" transform="translate(46.675)" fill="#b6c3f4"/><rect width="31.114" height="6.693" rx="2.463" transform="translate(93.35)" fill="#b6c3f4"/><rect width="31.114" height="6.693" rx="2.463" transform="translate(140.025)" fill="#b6c3f4"/><rect width="31.114" height="6.693" rx="2.463" transform="translate(186.7)" fill="#b6c3f4"/><rect width="31.114" height="6.693" rx="2.463" transform="translate(233.375)" fill="#b6c3f4"/><rect width="31.114" height="6.693" rx="2.463" transform="translate(280.05)" fill="#98abef" stroke="#98abef" stroke-miterlimit="10" stroke-width="0.25"/></g><rect width="356.006" height="48.163" transform="translate(6.115 18.825)" fill="#d3196a"/><path d="M367.074,276.845l3.833,8.655,8.64.94-6.82,5.93,2.056,9.6-7.708-4.99-7.708,4.99,2.056-9.6-6.82-5.93,8.64-.94Z" transform="translate(-138.95 -139.215)" fill="#f7cb2d"/><g transform="translate(68.861 96.995)"><line y2="178.529" fill="none" stroke="#98abef" stroke-miterlimit="10" stroke-width="0.5"/><line y2="178.529" transform="translate(46.103)" fill="none" stroke="#98abef" stroke-miterlimit="10" stroke-width="0.5"/><line y2="178.529" transform="translate(92.205)" fill="none" stroke="#98abef" stroke-miterlimit="10" stroke-width="0.5"/><line y2="178.529" transform="translate(138.308)" fill="none" stroke="#98abef" stroke-miterlimit="10" stroke-width="0.5"/><line y2="178.529" transform="translate(184.411 2.318)" fill="none" stroke="#98abef" stroke-miterlimit="10" stroke-width="0.5"/><line y2="178.529" transform="translate(230.514 2.318)" fill="none" stroke="#98abef" stroke-miterlimit="10" stroke-width="0.5"/></g><g transform="translate(22.728 131.977)"><line x1="322.779" fill="none" stroke="#98abef" stroke-miterlimit="10" stroke-width="0.5"/><line x1="322.779" transform="translate(0 36.961)" fill="none" stroke="#98abef" stroke-miterlimit="10" stroke-width="0.5"/><line x1="322.779" transform="translate(0 73.922)" fill="none" stroke="#98abef" stroke-miterlimit="10" stroke-width="0.5"/><line x1="322.779" transform="translate(0 110.883)" fill="none" stroke="#98abef" stroke-miterlimit="10" stroke-width="0.5"/></g><rect width="25.735" height="3.996" rx="1.471" transform="translate(28.271 143.932)" fill="#b6c3f4"/><path d="M1.471,0H24.265a1.47,1.47,0,0,1,1.47,1.47V2.526A1.47,1.47,0,0,1,24.265,4H1.471A1.471,1.471,0,0,1,0,2.526V1.471A1.471,1.471,0,0,1,1.471,0Z" transform="translate(126.41 111.943)" fill="#b6c3f4"/><rect width="25.349" height="1.926" rx="0.709" transform="translate(171.859 219.291)" fill="#b6c3f4"/><rect width="25.349" height="1.926" rx="0.709" transform="translate(171.859 224.063)" fill="#b6c3f4"/><rect width="25.349" height="1.926" rx="0.709" transform="translate(171.859 228.834)" fill="#b6c3f4"/><rect width="18.853" height="1.9" rx="0.699" transform="translate(28.271 152.381)" fill="#b6c3f4"/><g transform="translate(200.884 123.349)"><path d="M348.763,308c8.873,12.467,25.135,17.76,37.423,7.123,12.148-10.514,9.588-29.739.13-41.254-23.866-29.059-63,25.707-31.922,43.01a1.367,1.367,0,0,0,1.586-2.176,26.277,26.277,0,0,1-2.9-32.809c7.245-10.947,21.61-15.8,30.561-4.141,7.3,9.51,9.763,25.088-.033,33.826-10.277,9.167-24.787,4.883-32.761-5.277-.949-1.209-2.987.424-2.079,1.7Z" transform="translate(-342.888 -265.518)" fill="#d3196a"/></g><path d="M228.087,196.135a5.373,5.373,0,1,0-5.364,5.681A5.529,5.529,0,0,0,228.087,196.135Z" transform="translate(-174.73 -161.737)" fill="#f2eafa"/><path d="M244.582,196.135a5.373,5.373,0,1,0-5.364,5.681A5.529,5.529,0,0,0,244.582,196.135Z" transform="translate(-170.43 -161.737)" fill="#f2eafa"/><path d="M2.478,0H4.255A2.478,2.478,0,0,1,6.733,2.478v32.77a2.477,2.477,0,0,1-2.477,2.477H2.478A2.478,2.478,0,0,1,0,35.248V2.478A2.478,2.478,0,0,1,2.478,0Z" transform="translate(44.55)" fill="#100c82"/><path d="M2.478,0H4.255A2.477,2.477,0,0,1,6.733,2.477v32.77a2.477,2.477,0,0,1-2.477,2.477H2.477A2.477,2.477,0,0,1,0,35.248V2.478A2.478,2.478,0,0,1,2.478,0Z" transform="translate(65.421)" fill="#100c82"/><path d="M427.543,196.135a5.373,5.373,0,1,0-5.364,5.681A5.529,5.529,0,0,0,427.543,196.135Z" transform="translate(-122.731 -161.737)" fill="#f2eafa"/><path d="M444.039,196.135a5.373,5.373,0,1,0-5.364,5.681A5.529,5.529,0,0,0,444.039,196.135Z" transform="translate(-118.431 -161.737)" fill="#f2eafa"/><path d="M2.478,0H4.255A2.478,2.478,0,0,1,6.733,2.478v32.77a2.477,2.477,0,0,1-2.477,2.477H2.478A2.478,2.478,0,0,1,0,35.248V2.478A2.478,2.478,0,0,1,2.478,0Z" transform="translate(296.006)" fill="#100c82"/><path d="M2.478,0H4.256A2.478,2.478,0,0,1,6.733,2.478v32.77a2.478,2.478,0,0,1-2.478,2.478H2.477A2.477,2.477,0,0,1,0,35.248V2.478A2.478,2.478,0,0,1,2.478,0Z" transform="translate(316.877)" fill="#100c82"/><rect width="18.117" height="18.117" transform="matrix(0.933, -0.359, 0.359, 0.933, 272.849, 218.688)" fill="#f7aa2d"/><path d="M408.422,340.18a1.019,1.019,0,1,0-1.02,1.019A1.02,1.02,0,0,0,408.422,340.18Z" transform="translate(-125.451 -122.969)" fill="#d3196a"/><rect width="18.117" height="18.117" transform="translate(265.429 214.188) rotate(11.822)" fill="#f7cb2d"/><path d="M401.6,340.988a1.019,1.019,0,1,0-1.02,1.019A1.019,1.019,0,0,0,401.6,340.988Z" transform="translate(-127.23 -122.758)" fill="#d3196a"/></g><g transform="translate(971.47 574.845)"><path d="M242.286,435.451l-4.967.431L214.481,450.9l17.539-23.913,10.794,3.374Z" transform="translate(-190.013 -263.919)" fill="#100c82"/><path d="M298.966,414.485s.649-9.822-14.5-11.529-32.548,2.073-32.548,2.073l7.693,15.071Z" transform="translate(-180.254 -270.299)" fill="#4e69d1"/><path d="M249.868,443.964l-5.51.478L219.025,461.1l19.455-26.525,11.973,3.742Z" transform="translate(-188.828 -261.941)" fill="#100c82"/><path d="M257.327,393.613l12.639,21.839s39.979-7.924,49.807,3.3-1.95,29.463-31.177,34.574S246.6,459.7,246.6,459.7l-2.109-10.708s-29.064,2.656-18.149-55.806C226.345,393.188,235.865,398.533,257.327,393.613Z" transform="translate(-187.559 -272.73)" fill="#6c88ef"/><path d="M302.428,428.486s-29.619,12.088-62.028,12.057" transform="translate(-183.256 -263.527)" fill="none" stroke="#4e69d1" stroke-miterlimit="10" stroke-width="0.5"/><path d="M259.042,331.539a52.7,52.7,0,0,1-2.557,5.314l.028,5.39-4.8.091-1.087-6.7s.184-8.034-.018-12.994c-.111-2.757,5.719-6.722,9.24-8.172,2.091-.861-.686,3.57-3.937,6.019A60.929,60.929,0,0,0,259.042,331.539Z" transform="translate(-180.594 -293.281)" fill="#ff979c"/><path d="M292.332,333.326a52.84,52.84,0,0,0,3.246,4.924l.695,5.344,4.767-.553.179-6.783s-1.261-7.939-1.725-12.879c-.258-2.747-6.568-5.9-10.252-6.861-2.187-.572,1.159,3.447,4.709,5.437A60.886,60.886,0,0,1,292.332,333.326Z" transform="translate(-170.704 -292.732)" fill="#ff979c"/><g transform="translate(74.214 0.271)"><rect width="49.431" height="41.356" transform="translate(2.731 0) rotate(3.787)" fill="#fff"/><g transform="translate(11.466 10.969)"><path d="M275.159,306.575a11.371,11.371,0,1,1-12.1,10.595l11.345.751Z" transform="translate(-263.034 -306.55)" fill="#451fad"/><path d="M285.338,314.7a11.37,11.37,0,1,1-14.062-7.8l3.132,10.93Z" transform="translate(-263.035 -306.464)" fill="#d3196a"/><path d="M285.752,318.677a11.37,11.37,0,1,1-10.594-12.1l-.751,11.346Z" transform="translate(-263.034 -306.555)" fill="#f7cb2d"/></g><rect width="6.478" height="1.128" rx="0.39" transform="translate(42.846 9.582) rotate(3.787)" fill="#b6c3f4"/><rect width="6.478" height="1.128" rx="0.39" transform="matrix(0.998, 0.066, -0.066, 0.998, 42.649, 12.55)" fill="#b6c3f4"/><rect width="6.478" height="1.128" rx="0.39" transform="translate(42.445 15.637) rotate(3.788)" fill="#b6c3f4"/><path d="M287.192,306.021a.857.857,0,1,0-.911.8A.856.856,0,0,0,287.192,306.021Z" transform="translate(-245.717 -295.964)" fill="#d3196a"/><path d="M287.036,308.374a.857.857,0,1,0-.911.8A.857.857,0,0,0,287.036,308.374Z" transform="translate(-245.758 -295.35)" fill="#451fad"/><path d="M286.874,310.823a.857.857,0,1,0-.911.8A.856.856,0,0,0,286.874,310.823Z" transform="translate(-245.8 -294.712)" fill="#f7cb2d"/></g><path d="M296,336.981s-4.646-9.617-7.258-13.163.444-4.029,3.613-1.261c3.931,3.434,6.112,2.433,6.112,2.433l.1,5.943Z" transform="translate(-170.911 -291.608)" fill="#ff979c"/><path d="M256.214,336.5s3.316-10.154,5.427-14.018-.98-3.933-3.749-.765c-3.435,3.931-5.73,3.231-5.73,3.231l.7,5.9Z" transform="translate(-180.189 -291.954)" fill="#ff979c"/><path d="M260.8,332.567s3.749,21.274-12.887,27.6l-8.609-9.187c8.527-4.6,10.938-10.866,11.9-17.617Z" transform="translate(-183.541 -288.534)" fill="#451fad"/><path d="M216.332,310.17c-4.6-1.048-9.469,1.007-10.838,6.164-1.227,4.617,1.125,9.642.475,14.42-.577,4.249-3.379,7.519-5.918,10.634s-5.093,6.81-4.975,11.117c.11,3.946,2.8,7.632,6.146,8.422,1,.236,2.039.238,3.028.535,4.032,1.208,5.894,6.7,6.16,11.5s-.388,9.837,1.266,14.271a15.526,15.526,0,0,0,17.071,9.627c7.492-1.479,13.324-8.7,20.781-10.386,2.523-.571,5.127-.48,7.676-.884a10.093,10.093,0,0,0,6.823-3.666c1.663-2.271,2.1-5.435,3.471-7.954,1.815-3.33,5.1-5.236,7.118-8.4a14.153,14.153,0,0,0,1.055-12.424c-1.993-4.963-6.779-8.4-7.392-13.811-.4-3.509,1.111-6.846,2.094-10.178a29.456,29.456,0,0,0,.3-16.238c-1.509-5.247-5.524-13.247-15.644-14.941-6.358-1.065-13.782,1.967-25.363-.12-7.563-1.363-11.2,3.838-13.338,12.315" transform="translate(-195.073 -297.64)" fill="#d3196a"/><path d="M243.622,361.761s-3.923-4.5-3.337-17c0,0,9.221-2.07,9.58-9.286.258-5.219-.664-13.215-2.175-20.146,0,0-.236-4.029-6.031-5.638s-19.279.02-20.244,5.077.819,13.38.819,13.38a6.075,6.075,0,0,0-7.257-1.779c-4.479,1.943.866,16.592,8.259,9.468,0,0,7.007,20.161.711,21.582,0,0,2.286,12.068,15.508,9.438S243.622,361.761,243.622,361.761Z" transform="translate(-190.311 -294.652)" fill="#ff979c"/><path d="M235.226,320.113a10.847,10.847,0,0,0,2.257,4.149c1.213,1.355.983,2.437-1.2,3.645" transform="translate(-184.605 -291.781)" fill="none" stroke="#eb5772" stroke-linecap="round" stroke-miterlimit="10" stroke-width="0.4"/><g transform="translate(43.993 28.09)"><path d="M230.823,319.961c.482.158.625.831.7,1.3a5.96,5.96,0,0,1,.079,1.716.68.68,0,0,1-1.319.179c-.253-.628-.76-3.623.542-3.2Z" transform="translate(-229.968 -319.921)" fill="#4a31b2"/></g><g transform="translate(52.537 26.921)"><path d="M237.436,319.009c.548.135.711.685.837,1.224a5.823,5.823,0,0,1,.19,1.814.68.68,0,0,1-1.319.179,5.673,5.673,0,0,1-.4-1.958c-.018-.426.058-1.413.688-1.259Z" transform="translate(-236.745 -318.993)" fill="#4a31b2"/></g><path d="M215.45,324.836s3.667-1.067,5.673,4.776" transform="translate(-189.76 -290.569)" fill="none" stroke="#eb5772" stroke-linecap="round" stroke-miterlimit="10" stroke-width="0.4"/><path d="M215.807,327.559a4.282,4.282,0,0,1,3.8-1.261" transform="translate(-189.667 -290.177)" fill="none" stroke="#eb5772" stroke-linecap="round" stroke-miterlimit="10" stroke-width="0.4"/><path d="M236.639,329.622a11.508,11.508,0,0,1-6.392-2.664" transform="translate(-185.903 -289.996)" fill="none" stroke="#eb5772" stroke-linecap="round" stroke-miterlimit="10" stroke-width="0.4"/><g transform="translate(39.651 22.056)"><path d="M227.265,318.495a5.356,5.356,0,0,1,4.815-1.117.886.886,0,0,0,.68-1.611,4.173,4.173,0,0,0-6.219,2.306.438.438,0,0,0,.725.422Z" transform="translate(-226.524 -315.134)" fill="#d3196a"/></g><g transform="translate(50.354 21.225)"><path d="M239.569,316.256c-.4-1.947-3.042-2.335-4.32-.978a.888.888,0,0,0,.857,1.474,4.712,4.712,0,0,1,2.93.039.439.439,0,0,0,.533-.535Z" transform="translate(-235.014 -314.476)" fill="#d3196a"/></g><path d="M248.752,304.644c.349,2.47-2.189,6.635-4.535,7.482-4.9,1.771-10.436-1.282-15.082,1.087A12.121,12.121,0,0,0,222.68,324.2c.093,2.553.995,5.207.066,7.587a19.337,19.337,0,0,1-4.1-7.152l1.362-17.918Z" transform="translate(-188.928 -295.814)" fill="#d3196a"/><path d="M262.757,372.962a137.618,137.618,0,0,1-2.9,33.649s-20.016,7.747-30.982-.425c0,0-11.616-20.517-14.093-37.219C211.61,347.622,220.773,322.128,262.757,372.962Z" transform="translate(-190.085 -285.729)" fill="#451fad"/><path d="M225.88,343.548a41.862,41.862,0,0,0,13.739,1.157c7.712-.618,16.228.552,24.707,8.785s12.344,10.744,24.72,9.739c9.562-.777,19.753-11.022,24.117-29.053l9.119.6s-3.193,69.542-67.953,42c0,0-32.258,5.829-36.079,2.192S207.7,342.118,225.88,343.548Z" transform="translate(-190.188 -288.114)" fill="#451fad"/></g><g transform="translate(1072.3 339)"><path d="M329.645,149.708a16.332,16.332,0,0,1-15.891-2.874,10.059,10.059,0,0,1-3.383-5.005,5.818,5.818,0,0,1,1.455-5.662c1.524-1.4,3.9-1.73,5.142-3.38,1.561-2.064.59-4.962.208-7.521-.456-3.053.517-6.805,3.444-7.785,1.95-.654,4.172.149,6.111-.54s3.052-2.624,4.36-4.2,3.458-2.965,5.294-2.06a12.323,12.323,0,0,1,2.018,1.675c2.54,2.028,6.219,1.063,9.387.334s7.281-.695,8.746,2.207c1.771,3.509-2,8.278.3,11.461a10.484,10.484,0,0,0,2.4,2.015c3.256,2.437,5,7.332,2.738,10.714-2.814,4.212-9.395,3.569-13.319,6.771" transform="translate(-265.896 -110.395)" fill="#100c82"/><path d="M344.379,171.758s-2.328-1.958-2.069-10.029c0,0,7.03,0,8.462-5.078s1.432-16.793,1.3-23.953c0,0,.56-4.036-4.863-6.769s-19.091-3.776-21.044,1.041-1.823,13.409-1.823,13.409a6.13,6.13,0,0,0-6.834-3.19c-4.817,1.041-2.408,16.6,6.314,11,0,0,2.349,20.73-4.165,20.9,0,0,.508,13.009,14.117,13.009S344.379,171.758,344.379,171.758Z" transform="translate(-264.62 -106.947)" fill="#ff979c"/><path d="M337.794,137.878a10.938,10.938,0,0,0,1.418,4.554c.933,1.58.493,2.606-1.9,3.374" transform="translate(-258.821 -103.23)" fill="none" stroke="#eb5772" stroke-linecap="round" stroke-miterlimit="10" stroke-width="0.4"/><g transform="translate(72.086 33.217)"><path d="M333.441,136.839c.446.25.455.946.432,1.428a5.987,5.987,0,0,1-.258,1.715.687.687,0,0,1-1.341-.082c-.126-.672-.038-3.737,1.167-3.061Z" transform="translate(-332.231 -136.742)" fill="#4a31b2"/></g><g transform="translate(80.813 33.732)"><path d="M340.168,137.2c.518.241.57.818.588,1.375a5.84,5.84,0,0,1-.168,1.834.686.686,0,0,1-1.34-.082,5.729,5.729,0,0,1-.009-2.016c.067-.426.335-1.389.929-1.112Z" transform="translate(-339.153 -137.151)" fill="#4a31b2"/></g><path d="M317.412,136.543s3.841-.334,4.676,5.846" transform="translate(-264.009 -103.579)" fill="none" stroke="#eb5772" stroke-linecap="round" stroke-miterlimit="10" stroke-width="0.4"/><path d="M317.279,139.215a4.323,4.323,0,0,1,4.009-.5" transform="translate(-264.043 -103.078)" fill="none" stroke="#eb5772" stroke-linecap="round" stroke-miterlimit="10" stroke-width="0.4"/><g transform="translate(67.424 24.633)"><path d="M335.516,132.8c.445-1.551-1.267-2.66-2.591-2.837a4.554,4.554,0,0,0-4.3,2.344.728.728,0,0,0,.624,1.088c1.059-.1,2.088-.431,3.158-.473a14.261,14.261,0,0,1,2.393.421.743.743,0,0,0,.714-.543Z" transform="translate(-328.533 -129.934)" fill="#100c82"/></g><g transform="translate(80.128 26.02)"><path d="M339,133.333a9.288,9.288,0,0,0,1.293.291,6.639,6.639,0,0,0,1.7.542l-.543-.146c.474.208,1.368.953,1.773.234a1.37,1.37,0,0,0-.057-1.083,3.092,3.092,0,0,0-.676-1.341,2.472,2.472,0,0,0-2.951-.514c-.523.284-1.47,1.572-.541,2.017Z" transform="translate(-338.61 -131.034)" fill="#100c82"/></g><path d="M321.774,137.657a10.424,10.424,0,0,0,1.523,4.1c3.113-3.028.435-9.184,3.6-12.16a6.553,6.553,0,0,1,4.372-1.464c3.063-.084,6.069.792,9.125,1.017s6.457-.372,8.406-2.736a2.328,2.328,0,0,0,.61-2.254,2.649,2.649,0,0,0-1.249-1.161,24.613,24.613,0,0,0-15.14-3,16.524,16.524,0,0,0-5.9,1.789,12.894,12.894,0,0,0-5.059,16.561" transform="translate(-263.125 -107.938)" fill="#100c82"/><g transform="translate(69.403 41.797)"><path d="M335.037,144.541c-1.466-1.179-2.495-1.128-3.341-.763A3.266,3.266,0,0,0,330.42,148a6.347,6.347,0,0,0,5.3,3.775,4.933,4.933,0,0,0,4.638-2.293c.715-1.252.319-2.953-1.27-3.154C336.141,145.957,336.5,145.721,335.037,144.541Z" transform="translate(-330.097 -143.548)" fill="#5b0c24"/><path d="M335.56,151.45a5.99,5.99,0,0,1-5.147-3.65,3.5,3.5,0,0,1,.059-3.028c5.724.726,6.686,6.348,6.717,6.542A7.906,7.906,0,0,1,335.56,151.45Z" transform="translate(-330.103 -143.229)" fill="#d3196a"/></g><path d="M356.781,163.376l3.841-3.507s-4.844.166-10.857,0c-2.858-.079-6.641.318-5.91-6.021l-7.953.676-10.969,4.565A5.442,5.442,0,0,1,321.2,161.2c-2.283.112-9.521,0-11.859,2.228s16.146,13.251,27.169,13.251S356.781,163.376,356.781,163.376Z" transform="translate(-266.165 -99.066)" fill="#ff979c"/><path d="M318.029,161.129l-2.636.783s-23.719,8.236-36.245,30.619,5.479,56.451,29.7,65.137l5.282-6.375s-20.449-17.172-17.275-39.721,22.717-27.225,22.717-27.225h58.126l6.346-21.881-14.531-3.841-25.3,14.344Z" transform="translate(-275.052 -97.821)" fill="#f7aa2d"/><path d="M329.51,175.052s-5.779.557-9.82,1.281c-2.485.445-5.77,3.171-6.66,4.506s5.789-.668,8.685-2.45S327.728,178.17,329.51,175.052Z" transform="translate(-265.172 -93.538)" fill="#f0767b"/><path d="M342.242,175.795s-8.351-.785-12.471-1.009-8.167,1.435-16.814,5.9c0,0-2.313,1.849,2.253,1.292a36.364,36.364,0,0,0,7.881-1.838,6.643,6.643,0,0,0,5.973.61s8.39,2.173,11.731-.833l3.786-.223-.334-3.9Z" transform="translate(-265.323 -93.613)" fill="#ff979c"/><path d="M349.977,158.624s42.7,5.455,58.293,21.49c0,0,4.677,4.9-12.917,5.345s-37.191-1.113-37.191-1.113l2-8.908Z" transform="translate(-255.519 -97.821)" fill="#f7aa2d"/><path d="M335.094,181.724v-6.372s33.851-5.945,56.122-4.884,33.406,13.379,5.122,12.954S335.094,181.724,335.094,181.724Z" transform="translate(-259.399 -94.766)" fill="#f7cb2d"/><path d="M301.857,238.505s.911,6.193,3.37,9.836,4.1,3.461,5.192,1.913c0,0,2.46.364,3.005-1.822a2.2,2.2,0,0,0,2.277-2.186s3.825,4.918,6.375,7.651,4.1,1,1.912-2.641-6.648-10.929-6.648-10.929,2.185-4.372-.183-6.375-10.019-1.822-10.019-1.822Z" transform="translate(-268.064 -78.659)" fill="#ff979c"/><path d="M311.9,235.669c1.457,1.639,2.7,3.317,2.7,3.317" transform="translate(-265.446 -77.735)" fill="none" stroke="#eb5772" stroke-linecap="round" stroke-miterlimit="10" stroke-width="0.4"/><path d="M315.809,159.688s20.49,16.059,35.818-1.146c0,0,3.128-1.877,9.541.156,0,0-4.849,15.484-23.931,16.109-22.669.744-30.186-12.669-30.186-12.669S309.866,159.272,315.809,159.688Z" transform="translate(-266.71 -98.048)" fill="#f7cb2d"/></g><g transform="translate(1230.207 409.442)"><path d="M547.445,247.525l2.292-2.849s2.781,2.231,10.355-3.878c.026-.2-1.181-14.28-.567-14.023-2.283-.953-9.194.886-11.415,2.69S547.445,247.525,547.445,247.525Z" transform="translate(-362.083 -150.779)" fill="#f59196"/><path d="M559.739,237.509c.392.937-6.77,7.4-10.376,4.908l-1.015-5.507A8.212,8.212,0,0,1,556,235.615C560.425,237.1,559.739,237.509,559.739,237.509Z" transform="translate(-361.709 -148.521)" fill="#ff979c"/><g transform="translate(184.836 54.295)"><path d="M548.844,213.7l-.305-2.839,2.388-1.355.44,4.092Z" transform="translate(-546.496 -209.508)" fill="#d3196a"/><path d="M552.834,213.279c-.917-.324-.885-1.678-.885-1.678l-1.22.131-.7.074-1.22.131s.318,1.317-.508,1.828c-1.03.637-1.617,1.357-1.267,4.613.289,2.693,3.236,2.1,4.249,1.81,1.05.066,4.057.021,3.767-2.671C554.7,214.261,553.975,213.682,552.834,213.279Z" transform="translate(-546.914 -208.962)" fill="#100c82"/><path d="M556.324,248.876a2.351,2.351,0,1,0-2.086,2.589A2.352,2.352,0,0,0,556.324,248.876Z" transform="translate(-545.688 -199.792)" fill="#d3196a"/><rect width="8.398" height="40.144" transform="translate(0 9.852) rotate(-6.133)" fill="#d3196a"/><rect width="8.398" height="2.184" transform="translate(4.056 47.595) rotate(-6.133)" fill="#100c82"/><rect width="8.398" height="2.184" transform="translate(0.228 11.807) rotate(-6.133)" fill="#100c82"/><rect width="1.848" height="21.235" rx="0.573" transform="translate(3.503 23.594) rotate(-6.135)" fill="#100c82"/><path d="M.365,0H.811a.364.364,0,0,1,.364.364V21.639A.365.365,0,0,1,.811,22H.364A.364.364,0,0,1,0,21.639V.365A.365.365,0,0,1,.365,0Z" transform="translate(6.598 22.489) rotate(-6.117)" fill="#100c82"/></g><path d="M549.913,246.336l-3.367,4.255-3.891-5.464,2.407-4.134s-2.419-11.01,1.824-13.086c3.115-1.524,4.662-1.805,5.71-2.477,3.2-2.054,4.1,2.208-3.514,5.77C549.082,231.2,554.271,239.039,549.913,246.336Z" transform="translate(-363.194 -151.202)" fill="#ff979c"/><path d="M558.257,242.122s3.311-1.392,1.514-4.507c0,0,4.249-1.544,1.2-4.523,0,0,2.992-2.354-.372-4,0,0,2.495-4.11-2.11-4.206s-8.705,2.374-8.748,5c-.033,2.006,3.038-.044,8.424-1.167,0,0-8.757,1.683-8.657,3.226.194,2.974,5.047,1.437,9.271,1.541,0,0-8.316-.087-8.079,1.883s8.49,2.383,8.49,2.383-7.388-1.391-7.814-.522C550.386,239.246,558.257,242.122,558.257,242.122Z" transform="translate(-361.407 -151.206)" fill="#ffa6aa"/><path d="M538.944,244.524l5.956-6.1a57.605,57.605,0,0,1,6.075,5.318l-4.167,5.872Z" transform="translate(-364.161 -147.675)" fill="#98abef"/><path d="M482.775,239.254c.465,1.111,9.083,25.122,24.512,33.544,17.331,9.462,40.756,8.346,55.509-17.678a42.891,42.891,0,0,0-6.573-6.354s-15.811,11.933-29.581,7.012c-15.155-5.416-17.97-16.548-21.893-25.092-4.99-10.865-10.242-17.365-19.565-14.512-8.311,2.544-5.529,26.2-5.529,26.2" transform="translate(-379.735 -153.65)" fill="#6c88ef"/><path d="M451.51,222.632s3.331-.769,3.075-8.71c0,0-6.917,0-8.326-4.995s-1.409-16.524-1.281-23.569c0,0-.551-3.971,4.783-6.66s18.785-3.715,20.706,1.025,1.794,13.192,1.794,13.192a6.032,6.032,0,0,1,6.725-3.138c4.739,1.025,2.369,16.331-6.213,10.824,0,0-2.177,18.573,2.306,21.262l-12.1,12.1Z" transform="translate(-388.672 -163.839)" fill="#ff9e9e"/><path d="M476.118,179.025s-1.287-12.563-11-12.584c-10.85-.023-9.786,7.747-18.224,7.91-17.091.328-8.217,21.035,5.657,9.511,3.964-3.293,13.449-5.379,18.829-.64v6.4s.129,4.995,2.178,2.433v3.715s-.116,1.913.78,1.913.576-3.1.576-3.1,2.064-2.011,3.626-2.249a25.117,25.117,0,0,1,1.807-3.955C483.7,182.239,478.424,178.033,476.118,179.025Z" transform="translate(-390.608 -166.441)" fill="#f7cb2d"/><path d="M452.357,197.747a25.464,25.464,0,0,0,6.916-3.791" transform="translate(-386.735 -159.268)" fill="none" stroke="#eb5772" stroke-linecap="round" stroke-miterlimit="10" stroke-width="0.4"/><path d="M452.2,188.285a10.757,10.757,0,0,1-1.665,4.387c-1.011,1.5-.64,2.53,1.665,3.427" transform="translate(-387.348 -160.746)" fill="none" stroke="#eb5772" stroke-linecap="round" stroke-miterlimit="10" stroke-width="0.4"/><g transform="translate(69.996 26.491)"><path d="M456.339,187.53c-.454.219-.5.9-.511,1.378a5.864,5.864,0,0,0,.151,1.7.676.676,0,0,0,1.323,0c.164-.652.261-3.667-.963-3.076Z" transform="translate(-455.826 -187.453)" fill="#4a31b2"/></g><g transform="translate(61.398 26.479)"><path d="M449.711,187.482c-.523.205-.609.769-.661,1.316a5.767,5.767,0,0,0,.056,1.81.676.676,0,0,0,1.322,0,5.667,5.667,0,0,0,.129-1.979c-.04-.422-.247-1.384-.846-1.147Z" transform="translate(-449.006 -187.445)" fill="#4a31b2"/></g><path d="M485.684,213.765l-7.567-.383.518,3.835-9.995,7.559-11.875-8.6,1.193-2.791-8.5.383s-15.977.768-22,3.33l4.354,31.944s3.621,49.384,5.542,65.139a34.694,34.694,0,0,0,19.6.136l-.077-9.958H478.5l-.02,9.894c10.7,3.075,20.02-14.793,20.02-14.793,1.921-15.755,4.83-51.733,4.83-51.733l4.354-30.629C501.661,214.533,485.684,213.765,485.684,213.765Z" transform="translate(-393.224 -154.203)" fill="#6c88ef"/><path d="M428.052,285.959s2.712,1.945,6.918,4.9,2.4,11.048,1.921,15.082S434.873,319.1,434.3,321.6s-2.4,2.593-2.017-2.5.59-6.437.59-6.437-3.185,7.2-4.048,8.742-2.595,0-.1-6.532l2.5-6.533a98.441,98.441,0,0,1-8.55,5.379c-2.306,1.058-1.249-1.921.865-3.938s5.379-4.488,5.379-4.488-.576-8.1.384-10.594l-4.612-2.69Z" transform="translate(-394.813 -135.282)" fill="#ff9e9e"/><path d="M428.472,284.186l4.357,4.131a45.155,45.155,0,0,0-4,7.45l-8.993-5.8Z" transform="translate(-395.212 -135.744)" fill="#98abef"/><path d="M459.155,216.771s-14.26,2.569,2.722,14.73c0,0,11.959-13.908,1.88-14.265l-2.081,3.589Z" transform="translate(-386.423 -153.32)" fill="#e1d9e8"/><path d="M463.516,228.372l-.827-5.05h-4.645l-.213,4.813Z" transform="translate(-385.307 -151.612)" fill="#b00e54"/><path d="M463.16,217.641l-5.063-.178-1.626,4.743,2.042,3.134h4.645l2.042-3.134Z" transform="translate(-385.662 -153.139)" fill="#d3196a"/><path d="M444.913,213.8s9.812,16.706,19.562,23.06c0,0,9.515-6.809,15.449-23.114a6.347,6.347,0,0,0-4.821,0s-4.492,10.295-11.175,17.088c0,0-11.833-13.473-14.024-17.417A13.736,13.736,0,0,0,444.913,213.8Z" transform="translate(-388.675 -154.236)" fill="#98abef"/><path d="M461.647,219.125l6.988-9.6s1.953,4,4.516,4.642l-5.916,17.749Z" transform="translate(-384.313 -155.208)" fill="#f2eafa"/><path d="M460.671,218.66l-6.977-9.134s-3.28,4.667-5.952,4.642l8,17.749Z" transform="translate(-387.938 -155.208)" fill="#f2eafa"/><path d="M452.949,433.344a73.141,73.141,0,0,1,0,9.991c-.424,3.458-16.446,11.714-26.052,13.827,0,0,14.485-11.138,16.6-15.173a23.163,23.163,0,0,0,2.306-8.646Z" transform="translate(-393.372 -96.858)" fill="#b00e54"/><path d="M471.324,433.344a73.346,73.346,0,0,0,0,9.991c.425,3.458,16.446,11.714,26.054,13.827,0,0-14.485-11.138-16.6-15.173a23.163,23.163,0,0,1-2.306-8.646Z" transform="translate(-381.839 -96.858)" fill="#b00e54"/><path d="M496.749,289.149v-7.492H434.168v7.492s.516,153.13,4.358,188.868c0,0,8.453,2.306,13.834,0,0,0,6.29-98.384,9.438-166.225h8.056c3.148,67.841,9.439,166.225,9.439,166.225,5.379,2.306,13.832,0,13.832,0C496.967,442.28,496.749,289.149,496.749,289.149Z" transform="translate(-391.477 -136.403)" fill="#100c82"/><path d="M435.349,216.163c-6.2,2.1-24.463,15.378-31.684,33.955-7.755,19.944-3.2,46.4,25.432,60.428a33.122,33.122,0,0,1,4.468-8.626s-10-12.959-12.02-22.057c-2.842-12.791,2.843-28.068,17.631-31.549" transform="translate(-400.305 -153.478)" fill="#6c88ef"/><g transform="translate(68.978 20.786)"><path d="M456.02,186.335c.8-.063,1.53-.432,2.334-.474.83-.043,1.629.256,2.458.175.793-.077,1.633-1,1.032-1.8a3.526,3.526,0,0,0-3.535-1.258c-1.172.151-2.645.643-3.183,1.8-.3.645.04,1.625.894,1.558Z" transform="translate(-455.019 -182.929)" fill="#f7cb2d"/></g><g transform="translate(59.343 22.245)"><path d="M451.138,186.505a6.439,6.439,0,0,1-1.317-1.786,1.326,1.326,0,0,0-2.412,1.016,3.061,3.061,0,0,0,3.3,2.354.858.858,0,0,0,.429-1.583Z" transform="translate(-447.376 -184.086)" fill="#f7cb2d"/></g><path d="M472.495,189.141s-3.78-.329-4.6,5.751" transform="translate(-382.684 -160.524)" fill="none" stroke="#eb5772" stroke-linecap="round" stroke-miterlimit="10" stroke-width="0.4"/><path d="M472.488,191.771a4.254,4.254,0,0,0-3.943-.494" transform="translate(-382.514 -160.031)" fill="none" stroke="#eb5772" stroke-linecap="round" stroke-miterlimit="10" stroke-width="0.4"/><path d="M460.812,285.921a1.972,1.972,0,1,0-1.973,1.972A1.972,1.972,0,0,0,460.812,285.921Z" transform="translate(-385.559 -135.806)" fill="#f7cb2d"/><path d="M433.794,277.692h63.6l-.548,5H434.265Z" transform="translate(-391.574 -137.437)" fill="#6c88ef"/></g><g transform="translate(903.599 640.58)"><g transform="translate(36.475 34.905)"><path d="M170.645,433.96S163.912,403,201.1,377.468Z" transform="translate(-170.169 -377.468)" fill="#f7cb2d"/><path d="M170.394,434.182s30.161-12.492,30.456-56.493Z" transform="translate(-170.111 -377.41)" fill="#f7aa2d"/></g><g transform="translate(0 34.905)"><path d="M171.693,433.96s6.733-30.964-30.456-56.492Z" transform="translate(-141.237 -377.468)" fill="#f7aa2d"/><path d="M171.847,434.182s-30.161-12.492-30.456-56.493Z" transform="translate(-141.197 -377.41)" fill="#f7cb2d"/></g><g transform="translate(20.417)"><path d="M170.576,438.914s-29.575-34.282,0-89.133Z" transform="translate(-157.432 -349.781)" fill="#f7cb2d"/><path d="M167.814,439.285s29.576-34.282,0-89.134Z" transform="translate(-154.725 -349.685)" fill="#f7aa2d"/></g><path d="M147.005,417.021H200.9s0,42.051-26.946,42.051S147.005,417.021,147.005,417.021Z" transform="translate(-139.733 -332.251)" fill="#100c82"/></g><g transform="translate(1359.591 632.58)"><g transform="translate(36.475 34.905)"><path d="M170.645,433.96S163.912,403,201.1,377.468Z" transform="translate(-170.169 -377.468)" fill="#f7cb2d"/><path d="M170.394,434.182s30.161-12.492,30.456-56.493Z" transform="translate(-170.111 -377.41)" fill="#f7aa2d"/></g><g transform="translate(0 34.905)"><path d="M171.693,433.96s6.733-30.964-30.456-56.492Z" transform="translate(-141.237 -377.468)" fill="#f7aa2d"/><path d="M171.847,434.182s-30.161-12.492-30.456-56.493Z" transform="translate(-141.197 -377.41)" fill="#f7cb2d"/></g><g transform="translate(20.417)"><path d="M170.576,438.914s-29.575-34.282,0-89.133Z" transform="translate(-157.432 -349.781)" fill="#f7cb2d"/><path d="M167.814,439.285s29.576-34.282,0-89.134Z" transform="translate(-154.725 -349.685)" fill="#f7aa2d"/></g><path d="M147.005,417.021H200.9s0,42.051-26.946,42.051S147.005,417.021,147.005,417.021Z" transform="translate(-139.733 -332.251)" fill="#100c82"/></g><g transform="translate(1028.351 340.19)" opacity="0.11"><path d="M979.179,212.921l-5.2-2.816a22.625,22.625,0,0,0,.678-6.542l5.671-1.687a2.036,2.036,0,0,0,1.371-2.531l-2.009-6.76a2.036,2.036,0,0,0-2.531-1.371l-5.672,1.686a22.582,22.582,0,0,0-4.142-5.109l2.816-5.2a2.037,2.037,0,0,0-.82-2.76l-6.2-3.358a2.037,2.037,0,0,0-2.76.82l-2.816,5.2a22.553,22.553,0,0,0-6.542-.678l-1.686-5.672a2.036,2.036,0,0,0-2.531-1.371l-6.76,2.01a2.035,2.035,0,0,0-1.371,2.531l1.687,5.671a22.569,22.569,0,0,0-5.109,4.143l-5.2-2.817a2.036,2.036,0,0,0-2.759.82l-3.359,6.2a2.035,2.035,0,0,0,.821,2.759l5.2,2.816a22.587,22.587,0,0,0-.678,6.542l-5.671,1.687a2.036,2.036,0,0,0-1.372,2.531l2.01,6.76a2.036,2.036,0,0,0,2.531,1.371l5.672-1.686a22.536,22.536,0,0,0,4.142,5.108l-2.816,5.2a2.036,2.036,0,0,0,.82,2.76l6.2,3.358a2.037,2.037,0,0,0,2.76-.82l2.816-5.2a22.586,22.586,0,0,0,6.542.678l1.686,5.672a2.036,2.036,0,0,0,2.531,1.371l6.76-2.01a2.035,2.035,0,0,0,1.372-2.531l-1.687-5.671a22.564,22.564,0,0,0,5.109-4.143l5.2,2.817a2.036,2.036,0,0,0,2.759-.82l3.358-6.2A2.035,2.035,0,0,0,979.179,212.921Zm-34.865,5.714a16.068,16.068,0,1,1,21.78-6.477A16.066,16.066,0,0,1,944.313,218.635Z" transform="translate(-922.147 -174.688)" fill="none" stroke="#4c65ba" stroke-miterlimit="10" stroke-width="1"/></g><g transform="translate(875.128 317.461)" opacity="0.32"><path d="M1166.854,397.962l1.964-5.892a.656.656,0,0,1,1.1-.237l5.466,5.921a.656.656,0,0,0,1.1-.218l3.277-8.893a.655.655,0,0,1,1.13-.18l7.382,9.351a.655.655,0,0,0,1.069-.056l6.451-10.214" transform="translate(-1166.854 -387.254)" fill="none" stroke="#4c65ba" stroke-linecap="round" stroke-miterlimit="10" stroke-width="2"/><path d="M1195.561,387.813l2.315-.579v2.315" transform="translate(-1168.647 -387.235)" fill="none" stroke="#4c65ba" stroke-linecap="round" stroke-miterlimit="10" stroke-width="2"/></g><g transform="translate(1488.591 718.461)" opacity="0.32"><path d="M1166.854,397.962l1.964-5.892a.656.656,0,0,1,1.1-.237l5.466,5.921a.656.656,0,0,0,1.1-.218l3.277-8.893a.655.655,0,0,1,1.13-.18l7.382,9.351a.655.655,0,0,0,1.069-.056l6.451-10.214" transform="translate(-1166.854 -387.254)" fill="none" stroke="#4c65ba" stroke-linecap="round" stroke-miterlimit="10" stroke-width="2"/><path d="M1195.561,387.813l2.315-.579v2.315" transform="translate(-1168.647 -387.235)" fill="none" stroke="#4c65ba" stroke-linecap="round" stroke-miterlimit="10" stroke-width="2"/></g><g transform="translate(1360.128 347.461)" opacity="0.09"><path d="M1166.854,397.962l1.964-5.892a.656.656,0,0,1,1.1-.237l5.466,5.921a.656.656,0,0,0,1.1-.218l3.277-8.893a.655.655,0,0,1,1.13-.18l7.382,9.351a.655.655,0,0,0,1.069-.056l6.451-10.214" transform="translate(-1166.854 -387.254)" fill="none" stroke="#4c65ba" stroke-linecap="round" stroke-miterlimit="10" stroke-width="2"/><path d="M1195.561,387.813l2.315-.579v2.315" transform="translate(-1168.647 -387.235)" fill="none" stroke="#4c65ba" stroke-linecap="round" stroke-miterlimit="10" stroke-width="2"/></g><g transform="translate(1167.128 740.461)" opacity="0.1"><path d="M1166.854,397.962l1.964-5.892a.656.656,0,0,1,1.1-.237l5.466,5.921a.656.656,0,0,0,1.1-.218l3.277-8.893a.655.655,0,0,1,1.13-.18l7.382,9.351a.655.655,0,0,0,1.069-.056l6.451-10.214" transform="translate(-1166.854 -387.254)" fill="none" stroke="#4c65ba" stroke-linecap="round" stroke-miterlimit="10" stroke-width="2"/><path d="M1195.561,387.813l2.315-.579v2.315" transform="translate(-1168.647 -387.235)" fill="none" stroke="#4c65ba" stroke-linecap="round" stroke-miterlimit="10" stroke-width="2"/></g><g transform="translate(1477.933 473.597) rotate(39)" fill="none" opacity="0.33"><path d="M7.5,0,15,13.126H0Z" stroke="none"/><path d="M 7.50032377243042 2.015563011169434 L 1.723180770874023 12.125563621521 L 13.27746677398682 12.125563621521 L 7.50032377243042 2.015563011169434 M 7.50032377243042 2.86102294921875e-06 L 15.00064373016357 13.125563621521 L 3.814697265625e-06 13.125563621521 L 7.50032377243042 2.86102294921875e-06 Z" stroke="none" fill="#8155ff"/></g><g transform="translate(1410.933 654.359) rotate(39)" fill="none" opacity="0.18"><path d="M7.5,0,15,13.126H0Z" stroke="none"/><path d="M 7.50032377243042 2.015563011169434 L 1.723180770874023 12.125563621521 L 13.27746677398682 12.125563621521 L 7.50032377243042 2.015563011169434 M 7.50032377243042 2.86102294921875e-06 L 15.00064373016357 13.125563621521 L 3.814697265625e-06 13.125563621521 L 7.50032377243042 2.86102294921875e-06 Z" stroke="none" fill="#8155ff"/></g><circle cx="9" cy="9" r="9" transform="translate(916 474)" fill="#ff6a6a" opacity="0.43"/><circle cx="9" cy="9" r="9" transform="translate(1122.591 799)" fill="#ff6a6a" opacity="0.1"/><circle cx="9" cy="9" r="9" transform="translate(1242.591 340)" fill="#ff6a6a" opacity="0.43"/><circle cx="9" cy="9" r="9" transform="translate(1431 580)" fill="#ff6a6a" opacity="0.1"/><circle cx="9" cy="9" r="9" transform="translate(1436 571)" fill="#ff6a6a" opacity="0.1"/></g></svg>