<svg xmlns="http://www.w3.org/2000/svg" xmlns:xlink="http://www.w3.org/1999/xlink" width="1153.09" height="397.642" viewBox="0 0 1153.09 397.642"><defs><linearGradient id="a" x1="0.975" y1="-0.157" x2="0.122" y2="-0.02" gradientUnits="objectBoundingBox"><stop offset="0" stop-color="#ff6a6a"/><stop offset="1" stop-color="#7b27ab"/></linearGradient></defs><g transform="translate(-385 -333.357)"><path d="M616.476,361.6c1.945-14.554-2.608-28.073-2.011-42.218,1.148-27.2,27.137-45.981,36.192-70.432,11.467-30.962,10.917-65.658-3.009-95.829-6.712-14.541-16.516-28.055-29.905-37.4-20.64-14.407-47.685-17.566-73.119-15.739-37.853,2.72-77.8,17.859-115.855,13.73-21-2.278-27.415-23.277-38.262-37.129-12.268-15.666-28.974-27.971-47.444-36.162-34.019-15.086-74.848-16.514-109.618-2.835-37.12,14.6-69.475,50.27-67.349,90.6.984,18.66,9.07,37.194,5.327,55.529-4.7,23.009-23.466,43.977-37.066,62.725A135.289,135.289,0,0,0,129.3,399.159H603.426A98.941,98.941,0,0,0,616.476,361.6Z" transform="translate(276.865 331.841)" fill="#fffbe4" opacity="0.81"/><g transform="translate(1024.365 333.357)"><path d="M872.131,290.411H859.05a4.893,4.893,0,0,1-4.887-4.888V275.41a42.989,42.989,0,0,1-9.977-4.136l-7.154,7.153a4.891,4.891,0,0,1-6.913,0l-9.249-9.248a4.893,4.893,0,0,1,0-6.912l7.153-7.154a43.008,43.008,0,0,1-4.137-9.977H813.773a4.893,4.893,0,0,1-4.887-4.887V227.164a4.893,4.893,0,0,1,4.887-4.887h10.112a43.025,43.025,0,0,1,4.137-9.977l-7.153-7.154a4.892,4.892,0,0,1,0-6.912l9.249-9.249a4.891,4.891,0,0,1,6.913,0l7.154,7.153A42.988,42.988,0,0,1,854.163,192V181.888A4.893,4.893,0,0,1,859.05,177h13.081a4.893,4.893,0,0,1,4.887,4.888V192A42.931,42.931,0,0,1,887,196.137l7.153-7.153a4.893,4.893,0,0,1,6.912,0l9.251,9.249a4.89,4.89,0,0,1,0,6.912l-7.155,7.154a42.974,42.974,0,0,1,4.139,9.977h10.111a4.894,4.894,0,0,1,4.888,4.887v13.082a4.894,4.894,0,0,1-4.888,4.887H907.3a42.975,42.975,0,0,1-4.139,9.977l7.155,7.154a4.891,4.891,0,0,1,0,6.912l-9.251,9.248a4.891,4.891,0,0,1-6.912,0L887,271.273a42.932,42.932,0,0,1-9.977,4.136v10.112A4.893,4.893,0,0,1,872.131,290.411Zm-28.3-21.929.745.444a40.716,40.716,0,0,0,10.969,4.548l.84.212v11.836a2.667,2.667,0,0,0,2.664,2.664h13.081a2.667,2.667,0,0,0,2.664-2.664V273.686l.841-.212a40.742,40.742,0,0,0,10.969-4.548l.745-.444,8.371,8.373a2.667,2.667,0,0,0,3.768,0l9.251-9.25a2.668,2.668,0,0,0,0-3.767l-8.373-8.374.445-.744a40.767,40.767,0,0,0,4.549-10.969l.211-.84h11.836a2.666,2.666,0,0,0,2.664-2.664V227.164a2.666,2.666,0,0,0-2.664-2.664H905.573l-.211-.84a40.766,40.766,0,0,0-4.549-10.969l-.445-.744,8.373-8.374a2.668,2.668,0,0,0,0-3.767l-9.251-9.25a2.672,2.672,0,0,0-3.768,0l-8.371,8.373-.745-.444a40.742,40.742,0,0,0-10.969-4.548l-.841-.212V181.888a2.667,2.667,0,0,0-2.664-2.664H859.05a2.667,2.667,0,0,0-2.664,2.664v11.836l-.84.212a40.716,40.716,0,0,0-10.969,4.548l-.745.444-8.373-8.373a2.669,2.669,0,0,0-3.768,0l-9.249,9.25a2.666,2.666,0,0,0,0,3.767l8.372,8.374-.443.744a40.7,40.7,0,0,0-4.549,10.969l-.212.84H813.773a2.667,2.667,0,0,0-2.664,2.664v13.082a2.667,2.667,0,0,0,2.664,2.664H825.61l.212.84a40.7,40.7,0,0,0,4.549,10.969l.443.744-8.372,8.374a2.666,2.666,0,0,0,0,3.767l9.249,9.25a2.669,2.669,0,0,0,3.768,0Zm21.759-3.862a30.914,30.914,0,1,1,30.914-30.914A30.949,30.949,0,0,1,865.591,264.62Zm0-59.605a28.691,28.691,0,1,0,28.691,28.691A28.722,28.722,0,0,0,865.591,205.015Z" transform="translate(-808.886 -177)" fill="#fff"/></g><g transform="translate(1009.155 438.287)"><path d="M852.755,329.2l-5.48-2.968a23.755,23.755,0,0,0,.715-6.893l5.976-1.777a2.145,2.145,0,0,0,1.444-2.667l-2.118-7.122a2.143,2.143,0,0,0-2.666-1.444l-5.976,1.777a23.81,23.81,0,0,0-4.365-5.383l2.968-5.479a2.145,2.145,0,0,0-.865-2.907l-6.534-3.539a2.145,2.145,0,0,0-2.907.864l-2.967,5.48a23.736,23.736,0,0,0-6.894-.714l-1.777-5.977a2.144,2.144,0,0,0-2.667-1.444l-7.122,2.117a2.146,2.146,0,0,0-1.445,2.668l1.778,5.976a23.781,23.781,0,0,0-5.383,4.364l-5.479-2.967a2.144,2.144,0,0,0-2.907.864l-3.539,6.534a2.145,2.145,0,0,0,.864,2.907l5.48,2.967a23.733,23.733,0,0,0-.714,6.894l-5.976,1.777a2.145,2.145,0,0,0-1.445,2.667l2.118,7.123a2.145,2.145,0,0,0,2.667,1.445l5.976-1.778a23.784,23.784,0,0,0,4.364,5.383l-2.968,5.479a2.146,2.146,0,0,0,.865,2.907l6.534,3.539a2.144,2.144,0,0,0,2.907-.864l2.967-5.48a23.738,23.738,0,0,0,6.894.714l1.777,5.976a2.145,2.145,0,0,0,2.667,1.445l7.122-2.117a2.146,2.146,0,0,0,1.445-2.667l-1.777-5.976a23.831,23.831,0,0,0,5.383-4.365l5.479,2.967a2.144,2.144,0,0,0,2.907-.864l3.539-6.534A2.145,2.145,0,0,0,852.755,329.2Zm-36.737,6.021a16.93,16.93,0,1,1,22.949-6.823A16.93,16.93,0,0,1,816.018,335.225Z" transform="translate(-792.663 -288.92)" fill="#fff"/></g><g transform="translate(949 485.604)"><g transform="translate(0 12.095)"><rect width="160.788" height="117.39" rx="8.382" fill="#fff"/><path d="M728.5,384.723v-26.47a5.964,5.964,0,0,1,5.964-5.964H883.325a5.964,5.964,0,0,1,5.964,5.964V384.1Z" transform="translate(-728.5 -352.29)" fill="#ff6a6a"/><g transform="translate(12.45 38.774)"><rect width="17.786" height="14.229" fill="#ef929c"/><rect width="17.786" height="14.229" transform="translate(0 24.901)" fill="#ef929c" opacity="0.54"/><rect width="17.786" height="14.229" transform="translate(0 49.09)" fill="#ef929c" opacity="0.54"/></g><g transform="translate(43.043 38.774)"><rect width="17.786" height="14.229" fill="#ef929c" opacity="0.54"/><rect width="17.786" height="14.229" transform="translate(0 24.901)" fill="#ef929c"/><rect width="17.786" height="14.229" transform="translate(0 49.09)" fill="#ef929c" opacity="0.54"/></g><g transform="translate(72.924 38.774)" opacity="0.98"><rect width="17.786" height="14.229" fill="#ef929c" opacity="0.5"/><rect width="17.786" height="14.229" transform="translate(0 24.901)" fill="#ef929c" opacity="0.5"/><rect width="17.786" height="14.229" transform="translate(0 49.09)" fill="#ef929c"/></g><g transform="translate(103.516 38.774)" opacity="0.54"><rect width="17.786" height="14.229" fill="#ef929c"/><rect width="17.786" height="14.229" transform="translate(0 24.901)" fill="#ef929c"/><rect width="17.786" height="14.229" transform="translate(0 49.09)" fill="#ef929c"/></g><g transform="translate(132.686 38.774)"><rect width="17.786" height="14.229" fill="#ef929c" opacity="0.43"/><rect width="17.786" height="14.229" transform="translate(0 24.901)" fill="#ef929c"/><rect width="17.786" height="14.229" transform="translate(0 49.09)" fill="#ef929c" opacity="0.43"/></g><circle cx="5.625" cy="5.625" r="5.625" transform="translate(47.346 40.043)" fill="none" stroke="#fff" stroke-linecap="round" stroke-miterlimit="10" stroke-width="1"/><line x2="4.709" y2="7.969" transform="translate(50.382 41.449)" fill="none" stroke="#fff" stroke-linecap="round" stroke-miterlimit="10" stroke-width="1"/><line x1="7.969" y2="4.709" transform="translate(48.752 43.079)" fill="none" stroke="#fff" stroke-linecap="round" stroke-miterlimit="10" stroke-width="1"/></g><g transform="translate(12.58 0)"><ellipse cx="7.115" cy="7.115" rx="7.115" ry="7.115" transform="translate(0 17.075)" fill="#fff" opacity="0.58"/><path d="M749.3,366.14h0a3.14,3.14,0,0,1-3.13-3.131v-20.49a3.14,3.14,0,0,1,3.13-3.13h0a3.14,3.14,0,0,1,3.13,3.13v20.49A3.139,3.139,0,0,1,749.3,366.14Z" transform="translate(-742.183 -339.389)" fill="#3e479b"/><g transform="translate(21.07)"><circle cx="7.115" cy="7.115" r="7.115" transform="translate(0 17.075)" fill="#fff" opacity="0.58"/><path d="M771.771,366.14h0a3.139,3.139,0,0,1-3.13-3.131v-20.49a3.14,3.14,0,0,1,3.13-3.13h0a3.14,3.14,0,0,1,3.13,3.13v20.49A3.14,3.14,0,0,1,771.771,366.14Z" transform="translate(-764.657 -339.389)" fill="#3e479b"/></g><g transform="translate(40.936)"><ellipse cx="7.115" cy="7.115" rx="7.115" ry="7.115" transform="translate(0 17.075)" fill="#fff" opacity="0.58"/><path d="M792.96,366.14h0a3.14,3.14,0,0,1-3.13-3.131v-20.49a3.14,3.14,0,0,1,3.13-3.13h0a3.14,3.14,0,0,1,3.13,3.13v20.49A3.139,3.139,0,0,1,792.96,366.14Z" transform="translate(-785.846 -339.389)" fill="#3e479b"/></g><g transform="translate(62.006)"><circle cx="7.115" cy="7.115" r="7.115" transform="translate(0 17.075)" fill="#fff" opacity="0.58"/><path d="M815.434,366.14h0a3.14,3.14,0,0,1-3.13-3.131v-20.49a3.14,3.14,0,0,1,3.13-3.13h0a3.14,3.14,0,0,1,3.13,3.13v20.49A3.14,3.14,0,0,1,815.434,366.14Z" transform="translate(-808.32 -339.389)" fill="#3e479b"/></g><g transform="translate(81.817)"><circle cx="7.115" cy="7.115" r="7.115" transform="translate(0 17.075)" fill="#fff" opacity="0.58"/><path d="M836.566,366.14h0a3.14,3.14,0,0,1-3.131-3.131v-20.49a3.14,3.14,0,0,1,3.131-3.13h0a3.14,3.14,0,0,1,3.13,3.13v20.49A3.14,3.14,0,0,1,836.566,366.14Z" transform="translate(-829.451 -339.389)" fill="#3e479b"/></g><g transform="translate(102.887)"><ellipse cx="7.115" cy="7.115" rx="7.115" ry="7.115" transform="translate(0 17.075)" fill="#fff" opacity="0.58"/><path d="M859.039,366.14h0a3.139,3.139,0,0,1-3.13-3.131v-20.49a3.14,3.14,0,0,1,3.13-3.13h0a3.14,3.14,0,0,1,3.13,3.13v20.49A3.14,3.14,0,0,1,859.039,366.14Z" transform="translate(-851.925 -339.389)" fill="#3e479b"/></g><g transform="translate(122.753)"><ellipse cx="7.115" cy="7.115" rx="7.115" ry="7.115" transform="translate(0 17.075)" fill="#fff" opacity="0.58"/><path d="M880.228,366.14h0a3.14,3.14,0,0,1-3.13-3.131v-20.49a3.14,3.14,0,0,1,3.13-3.13h0a3.14,3.14,0,0,1,3.13,3.13v20.49A3.14,3.14,0,0,1,880.228,366.14Z" transform="translate(-873.114 -339.389)" fill="#3e479b"/></g></g></g><ellipse cx="41.83" cy="42.325" rx="41.83" ry="42.325" transform="translate(1004.356 572.43)" fill="#ff6a6a"/><ellipse cx="32.153" cy="32.534" rx="32.153" ry="32.534" transform="translate(1014.033 582.222)" fill="#fff"/><rect width="3.119" height="22.09" rx="0.9" transform="translate(1044.627 590.328)" fill="#599af2"/><rect width="3.119" height="17.742" rx="0.9" transform="translate(1064.018 613.732) rotate(90)" fill="#599af2"/><path d="M836.527,476.83a4.678,4.678,0,1,1-4.678-4.734A4.706,4.706,0,0,1,836.527,476.83Z" transform="translate(214.337 137.926)" fill="#3e479b"/><path d="M736.884,305.105H697.642A1.642,1.642,0,0,0,696,306.747v28.611A1.642,1.642,0,0,0,697.642,337h39.242a1.642,1.642,0,0,0,1.642-1.642V306.747A1.642,1.642,0,0,0,736.884,305.105Z" transform="translate(210.474 71.312)" fill="#fff" opacity="0.04"/><path d="M712.534,319.371l4.3,2.259a.847.847,0,0,0,.814-.012l19.106-11.245,1.438-.847a.906.906,0,0,1,.33-.116v-2.663a1.642,1.642,0,0,0-1.642-1.642H697.642A1.642,1.642,0,0,0,696,306.747v4.217l1.037.528Z" transform="translate(210.474 71.312)" fill="#7b27ab" opacity="0.04"/><path d="M696,313.028v20.3l15.2-12.568Z" transform="translate(210.474 71.312)" fill="#7b27ab" opacity="0.04"/><path d="M738.526,333.439V311.466l-15.38,9.053Z" transform="translate(210.474 71.312)" fill="#7b27ab" opacity="0.04"/><path d="M737.457,334.944,721.464,321.51l-2.9,1.7a2.727,2.727,0,0,1-1.34.356,2.689,2.689,0,0,1-1.247-.309l-3.031-1.592a.884.884,0,0,1-.145.155l-15.879,13.126a.9.9,0,0,1-.927.141v.268A1.642,1.642,0,0,0,697.642,337h39.242a1.642,1.642,0,0,0,1.642-1.642v-.338a.9.9,0,0,1-1.069-.076Z" transform="translate(210.474 71.312)" fill="#7b27ab" opacity="0.04"/><path d="M738.526,309.41a.906.906,0,0,0-.33.116l-1.438.847-19.106,11.245a.847.847,0,0,1-.814.012l-4.3-2.259-15.5-7.879L696,310.964v2.064l15.205,7.731L696,333.328v1.762a.9.9,0,0,0,.927-.141l15.879-13.126a.884.884,0,0,0,.145-.155l3.031,1.592a2.689,2.689,0,0,0,1.247.309,2.727,2.727,0,0,0,1.34-.356l2.9-1.7,15.993,13.434a.9.9,0,0,0,1.069.076v-1.581l-15.38-12.919,15.38-9.053Z" transform="translate(210.474 71.312)" fill="#fdb9b9" opacity="0.04"/><ellipse cx="146.256" cy="146.256" rx="146.256" ry="146.256" transform="translate(1036.66 374.609)" fill="#7b27ab"/><circle cx="132.92" cy="132.92" r="132.92" transform="translate(1049.996 387.946)" fill="#fff" opacity="0.55"/><circle cx="119.361" cy="119.361" r="119.361" transform="translate(1063.555 401.504)" fill="#fff"/><g transform="translate(1068.779 406.728)"><g transform="translate(110.716)"><rect width="6.442" height="21.74" rx="3.221" fill="#373449"/><rect width="6.442" height="21.74" rx="3.221" transform="translate(0.403 206.535)" fill="#373449"/></g><g transform="translate(0 110.716)"><rect width="6.442" height="21.74" rx="3.221" transform="translate(228.275 0) rotate(90)" fill="#373449"/><rect width="6.442" height="21.74" rx="3.221" transform="translate(21.74 0.403) rotate(90)" fill="#373449"/></g><g transform="translate(33.6 33.412)"><path d="M3.22,0h0A3.222,3.222,0,0,1,6.442,3.222v7.793a3.22,3.22,0,0,1-3.22,3.22h0A3.222,3.222,0,0,1,0,11.012V3.22A3.22,3.22,0,0,1,3.22,0Z" transform="matrix(0.707, 0.707, -0.707, 0.707, 156.426, 0)" fill="#373449"/><path d="M3.22,0h0A3.222,3.222,0,0,1,6.442,3.222v9.635a3.221,3.221,0,0,1-3.221,3.221h0A3.221,3.221,0,0,1,0,12.857V3.22A3.22,3.22,0,0,1,3.22,0Z" transform="matrix(0.707, 0.707, -0.707, 0.707, 11.372, 145.624)" fill="#373449"/></g><g transform="translate(33.317 33.695)"><path d="M3.22,0h0A3.221,3.221,0,0,1,6.442,3.221v7.793a3.219,3.219,0,0,1-3.219,3.219h0A3.221,3.221,0,0,1,0,11.013V3.22A3.22,3.22,0,0,1,3.22,0Z" transform="matrix(-0.707, 0.707, -0.707, -0.707, 161.546, 156.426)" fill="#373449"/><path d="M3.22,0h0A3.222,3.222,0,0,1,6.442,3.222v9.635a3.221,3.221,0,0,1-3.221,3.221h0A3.221,3.221,0,0,1,0,12.857V3.22A3.22,3.22,0,0,1,3.22,0Z" transform="matrix(-0.707, 0.707, -0.707, -0.707, 15.921, 11.372)" fill="#373449"/></g></g><g transform="translate(1179.316 440.914)"><rect width="7.113" height="81.797" rx="3.556" transform="translate(0 0)" fill="#3e479b"/><rect width="7.113" height="58.68" rx="3.556" transform="translate(58.68 80.908) rotate(90)" fill="#3e479b"/></g><line x1="53.346" y2="48.011" transform="translate(1183.317 472.477)" fill="none" stroke="#373449" stroke-linecap="round" stroke-miterlimit="10" stroke-width="2"/><circle cx="12.892" cy="12.892" r="12.892" transform="translate(1170.024 507.974)" fill="#4c65ba"/><g transform="translate(1147 702.083)"><path d="M1.711,0h36.91a1.711,1.711,0,0,1,1.711,1.711V24.8a1.712,1.712,0,0,1-1.712,1.712H1.711A1.711,1.711,0,0,1,0,24.8V1.711A1.711,1.711,0,0,1,1.711,0Z" transform="translate(40.333 26.515) rotate(180)" fill="#fff"/><path d="M1.711,0h36.91a1.711,1.711,0,0,1,1.711,1.711V24.8a1.712,1.712,0,0,1-1.712,1.712H1.711A1.711,1.711,0,0,1,0,24.8V1.711A1.711,1.711,0,0,1,1.711,0Z" transform="translate(40.333 26.515) rotate(180)" fill="#7b27ab" opacity="0.66"/></g><g transform="translate(1307.609 496.376)" opacity="0.89"><g transform="translate(0 0)"><rect width="99.566" height="63.985" rx="1.679" fill="#7b27ab"/></g></g><g transform="translate(1320.222 511.529)"><path d="M1195.673,367.986h-70.749a.472.472,0,0,1,0-.944h70.749a.472.472,0,0,1,0,.944Z" transform="translate(-1124.453 -367.042)" fill="#fff"/><path d="M1153.867,388.252h-28.943a.472.472,0,0,1,0-.944h28.943a.472.472,0,0,1,0,.944Z" transform="translate(-1124.453 -368.308)" fill="#fff"/><path d="M1153.867,400.334h-28.943a.472.472,0,0,1,0-.944h28.943a.472.472,0,0,1,0,.944Z" transform="translate(-1124.453 -369.062)" fill="#fff"/><g transform="translate(0 7.545)"><path d="M1161.907,376.033h-36.982a.472.472,0,0,1,0-.943h36.982a.472.472,0,1,1,0,.943Z" transform="translate(-1124.453 -375.09)" fill="#fff"/><path d="M1197.845,376.22h-25.758c-.418,0-.757-.253-.757-.565s.339-.564.757-.564h25.758c.417,0,.756.253.756.564S1198.262,376.22,1197.845,376.22Z" transform="translate(-1127.381 -375.09)" fill="#fff"/></g></g><g transform="translate(1346.128 586.461)"><path d="M1166.854,397.962l1.964-5.892a.656.656,0,0,1,1.1-.237l5.466,5.921a.656.656,0,0,0,1.1-.218l3.277-8.893a.655.655,0,0,1,1.13-.18l7.382,9.351a.655.655,0,0,0,1.069-.056l6.451-10.214" transform="translate(-1166.854 -387.254)" fill="none" stroke="#4c65ba" stroke-linecap="round" stroke-miterlimit="10" stroke-width="2"/><path d="M1195.561,387.813l2.315-.579v2.315" transform="translate(-1168.647 -387.235)" fill="none" stroke="#4c65ba" stroke-linecap="round" stroke-miterlimit="10" stroke-width="2"/></g><g transform="translate(1507.771 691.461)" opacity="0.18"><path d="M1166.854,397.962l1.964-5.892a.656.656,0,0,1,1.1-.237l5.466,5.921a.656.656,0,0,0,1.1-.218l3.277-8.893a.655.655,0,0,1,1.13-.18l7.382,9.351a.655.655,0,0,0,1.069-.056l6.451-10.214" transform="translate(-1166.854 -387.254)" fill="none" stroke="#4c65ba" stroke-linecap="round" stroke-miterlimit="10" stroke-width="2"/><path d="M1195.561,387.813l2.315-.579v2.315" transform="translate(-1168.647 -387.235)" fill="none" stroke="#4c65ba" stroke-linecap="round" stroke-miterlimit="10" stroke-width="2"/></g><g transform="translate(1274.063 344.608)"><g transform="translate(85.909 98.175)" opacity="0.77"><path d="M1203.511,318.045l-3.371-1.826a13.678,13.678,0,0,0,.357-4.09l3.621-.988a1.224,1.224,0,0,0,.85-1.569l-1.37-4.259a1.363,1.363,0,0,0-1.642-.889l-3.62.989a14.986,14.986,0,0,0-2.721-3.25l1.747-3.224a1.293,1.293,0,0,0-.56-1.739l-4.02-2.177a1.292,1.292,0,0,0-1.763.481l-1.746,3.224a15,15,0,0,0-4.209-.5l-1.15-3.573a1.363,1.363,0,0,0-1.641-.89l-4.315,1.179a1.223,1.223,0,0,0-.85,1.569l1.15,3.573a13.658,13.658,0,0,0-3.231,2.534l-3.372-1.826a1.292,1.292,0,0,0-1.762.481l-2.082,3.845a1.291,1.291,0,0,0,.56,1.738l3.372,1.827a13.644,13.644,0,0,0-.358,4.09l-3.621.989a1.224,1.224,0,0,0-.85,1.569l1.372,4.258a1.362,1.362,0,0,0,1.641.89l3.622-.989a14.993,14.993,0,0,0,2.72,3.25l-1.747,3.224a1.291,1.291,0,0,0,.56,1.738l4.021,2.178a1.292,1.292,0,0,0,1.762-.481l1.747-3.224a15.031,15.031,0,0,0,4.208.5l1.15,3.573a1.363,1.363,0,0,0,1.642.889l4.315-1.178a1.223,1.223,0,0,0,.849-1.569l-1.149-3.573a13.7,13.7,0,0,0,3.23-2.534l3.372,1.826a1.292,1.292,0,0,0,1.762-.482l2.082-3.845A1.292,1.292,0,0,0,1203.511,318.045ZM1181.2,321.21a9.972,9.972,0,1,1,13.906-3.8A10.2,10.2,0,0,1,1181.2,321.21Z" transform="translate(-1166.851 -293.716)" fill="#599af2" opacity="0.39"/></g><g transform="translate(93.232 32.739)" opacity="0.39"><path d="M1234.755,264.2l-5.48-2.968a23.755,23.755,0,0,0,.715-6.893l5.976-1.777a2.145,2.145,0,0,0,1.444-2.667l-2.118-7.122a2.143,2.143,0,0,0-2.666-1.444l-5.976,1.777a23.831,23.831,0,0,0-4.365-5.383l2.968-5.479a2.145,2.145,0,0,0-.865-2.907l-6.534-3.539a2.145,2.145,0,0,0-2.907.864l-2.967,5.48a23.734,23.734,0,0,0-6.894-.714l-1.777-5.977a2.144,2.144,0,0,0-2.667-1.444l-7.123,2.118a2.145,2.145,0,0,0-1.445,2.667l1.778,5.975a23.811,23.811,0,0,0-5.383,4.365l-5.479-2.967a2.144,2.144,0,0,0-2.907.864l-3.539,6.534a2.145,2.145,0,0,0,.864,2.907l5.48,2.967a23.735,23.735,0,0,0-.714,6.894l-5.976,1.777a2.145,2.145,0,0,0-1.445,2.667l2.118,7.122a2.145,2.145,0,0,0,2.667,1.445l5.976-1.778a23.786,23.786,0,0,0,4.364,5.383l-2.968,5.479a2.145,2.145,0,0,0,.865,2.907l6.534,3.539a2.144,2.144,0,0,0,2.907-.864l2.967-5.48a23.736,23.736,0,0,0,6.894.714l1.777,5.976a2.144,2.144,0,0,0,2.667,1.445l7.122-2.117a2.146,2.146,0,0,0,1.445-2.667l-1.777-5.976a23.83,23.83,0,0,0,5.382-4.365l5.479,2.967a2.144,2.144,0,0,0,2.907-.864l3.539-6.534A2.145,2.145,0,0,0,1234.755,264.2Zm-36.737,6.021a16.93,16.93,0,1,1,22.949-6.823A16.93,16.93,0,0,1,1198.018,270.225Z" transform="translate(-1174.663 -223.92)" fill="#fff"/></g><rect width="24.641" height="14.247" transform="translate(46.642 5.343)" fill="#3e479b"/><rect width="32.561" height="9.795" rx="1.981" transform="translate(42.682)" fill="#4c65ba"/><ellipse cx="58.962" cy="59.66" rx="58.962" ry="59.66" transform="translate(0 16.624)" fill="#ff6a6a"/><ellipse cx="45.322" cy="45.858" rx="45.322" ry="45.858" transform="translate(13.64 30.426)" fill="#fff"/><path d="M1175.887,290.427a45.1,45.1,0,0,1-80.932,1.2c-1.642-3.169,18.331-21.011,39.287-21.28C1155.3,270.073,1177.35,287.389,1175.887,290.427Z" transform="translate(-1076.446 -194.081)" fill="#ecf1f7" opacity="0.81"/><path d="M1161.7,301.266a28.159,28.159,0,0,1-50.529.748c-1.026-1.979,11.445-13.118,24.528-13.286C1148.845,288.558,1162.609,299.369,1161.7,301.266Z" transform="translate(-1077.461 -195.229)" fill="#fff" opacity="0.55"/><rect width="4.396" height="31.137" rx="0.9" transform="translate(56.764 41.851)" fill="#ef929c"/><ellipse cx="6.594" cy="6.672" rx="6.594" ry="6.672" transform="translate(52.368 69.611)" fill="#3e479b"/></g><g transform="translate(1291.11 652.273)"><g transform="translate(0 0)"><path d="M1109.754,523.128l.154,0-.032,1.518-16.474.239.024-1.118a.414.414,0,0,1,.256-.377.369.369,0,0,1,.125-.028Z" transform="translate(-1093.402 -517.534)" fill="#373449"/><path d="M1103.993,517.221l4.986-.059a.541.541,0,0,1,.33.107.6.6,0,0,1,.1.092.627.627,0,0,1,.148.383l.025.58.081,1.874.111,2.557-15.948.232a.372.372,0,0,0-.125.028,3.36,3.36,0,0,1,2.41-2.329l3.65-.285,2.469-1.276,1.482-1.824a.529.529,0,0,1,.091-.035.624.624,0,0,1,.071-.027A.6.6,0,0,1,1103.993,517.221Z" transform="translate(-1093.421 -517.162)" fill="#373449"/></g><g transform="translate(24.773 0.044)"><path d="M1136.188,523.181l.155,0-.042,1.519-16.475.135.031-1.118a.413.413,0,0,1,.259-.375.368.368,0,0,1,.125-.028Z" transform="translate(-1119.825 -517.582)" fill="#373449"/><path d="M1130.468,517.237l4.986-.028a.547.547,0,0,1,.329.11.563.563,0,0,1,.1.092.63.63,0,0,1,.146.385l.021.58.068,1.875.092,2.557-15.948.13a.375.375,0,0,0-.125.028,3.363,3.363,0,0,1,2.425-2.314l3.653-.263,2.476-1.259,1.5-1.815a.49.49,0,0,1,.091-.035.679.679,0,0,1,.072-.027A.642.642,0,0,1,1130.468,517.237Z" transform="translate(-1119.844 -517.209)" fill="#373449"/></g></g><g transform="translate(1244.614 457.512)"><g transform="translate(0 0)"><path d="M1043.98,317.51a1.015,1.015,0,0,1,1.252-.7l.895.251c0-.038.009-.076.015-.114l-1.42-.349a1.115,1.115,0,0,1-.852-1.406c.473-1.2,1.455-.753,2.078-.6l.753.261c-.021-.022-1.286-.515-1.305-.538a1.012,1.012,0,0,1,.945-1.635l3.565.553a43.826,43.826,0,0,1,6.194.893l-1.312-2.907a1.269,1.269,0,0,1,2.313-1.044l2.347,5.2a7.543,7.543,0,0,1,.7,1.242c.206.71,2.116,4.666,2.116,4.666l-4.8,1.592s-7.255-2.2-10.239-3.389l-2.551-.718A1.015,1.015,0,0,1,1043.98,317.51Z" transform="translate(-1043.808 -309.426)" fill="#ff6a6a"/><path d="M1056.815,314.562l-.015-.019a.185.185,0,0,0-.261-.019,2.539,2.539,0,0,0-1,1.9,3,3,0,0,0,.956,2.023.185.185,0,0,0,.247-.276,2.662,2.662,0,0,1-.833-1.748,2.188,2.188,0,0,1,.874-1.617A.185.185,0,0,0,1056.815,314.562Z" transform="translate(-1044.54 -309.741)" fill="#ff6a6a"/></g><path d="M1117.253,342.606h-8.877c-3.423,0-7.159,1.608-10.333,3.867-5.288-.358-11.9-.908-13.17-1.909-1.947-1.539-18.006-20.641-21.533-24.847a1.121,1.121,0,0,0-1.534-.174l-4.44,3.345a1.12,1.12,0,0,0-.271,1.5c3.156,4.928,18.692,29.068,21.113,30.537,1.056.641,6.537,2.669,12.809,4.9l1.354,7.889a135.194,135.194,0,0,1,1.31,35.922l-.643,6.613c0,.5-.514.9.008.9h38.6c.522,0-2.462-13.813-2.462-14.309l5.531-38.233C1136.008,348.759,1126.244,342.606,1117.253,342.606Z" transform="translate(-1044.626 -310.043)" fill="#ff6a6a"/></g><g transform="translate(1259.78 495.67)"><path d="M1060.71,373.241a.562.562,0,0,1,.539-.744l4.449-.036-5.166-.66a.623.623,0,0,1-.547-.6v-.068a.563.563,0,0,1,.6-.568l5.085.2-4.184-.764a.616.616,0,0,1-.505-.7l.024-.137a.569.569,0,0,1,.634-.458l4.008.447a.614.614,0,0,0,.093,0l3.116-.122a.565.565,0,0,0,.42-.928l-1.56-1.991a.571.571,0,0,1,.047-.774l.078-.073a.606.606,0,0,1,.759-.038l3.236,2.265a8.366,8.366,0,0,1,3,2.795l-.457,5.989c-.019.014-.046.008-.07.01a76.423,76.423,0,0,1-8.036-.472l-.063,0-3.392.007a.62.62,0,0,1-.623-.68.559.559,0,0,1,.475-.484l3.045-.48-4.4-.365a.63.63,0,0,1-.545-.425Z" transform="translate(-1059.984 -351.062)" fill="#f9dcd2"/><g transform="translate(13.77 0)"><path d="M1131.328,351.459a6.817,6.817,0,0,0-8.989.788l-.01.009c-2.171,2.248-11.322,13.382-13.712,13.985s-27.347,1.706-32.824,1.942a1.117,1.117,0,0,0-1.07,1.11l-.051,5.559a1.117,1.117,0,0,0,1.02,1.128c5.822.5,34.443,2.884,37.082,1.858,1.406-.547,10.635-6.5,18.205-11.454a9.054,9.054,0,0,0,.484-14.825Z" transform="translate(-1074.671 -350.126)" fill="#ff6a6a"/><path d="M1075.759,377.59c5.822.5,34.442,2.884,37.082,1.858a69.123,69.123,0,0,0,5.941-3.537" transform="translate(-1074.739 -351.736)" fill="none" stroke="#ecf1f7" stroke-linecap="round" stroke-miterlimit="10" stroke-width="1" opacity="0.31"/><path d="M1131.4,351.459a6.817,6.817,0,0,0-8.989.788l-.009.009c-2.171,2.248-11.322,13.382-13.712,13.985-2.406.606-27.347,1.706-32.824,1.942" transform="translate(-1074.746 -350.126)" fill="none" stroke="#ecf1f7" stroke-linecap="round" stroke-miterlimit="10" stroke-width="1" opacity="0.31"/></g></g><path d="M1095.927,405.018c.016-1.126.917-1.1,2.042-1.129l32.707-.839a2.259,2.259,0,0,1,2.291,1.917s1.734,14.237,1.846,20.673l.533,83.623a2.22,2.22,0,0,1-2.223,2.234l-6.968-.006a2.541,2.541,0,0,1-2.529-2.307l-6.8-73.489a2.1,2.1,0,0,0-2.092-1.955h0a2.1,2.1,0,0,0-2.1,2.087l-2.178,73.817a1.909,1.909,0,0,1-1.911,1.853l-6.958-.008a1.875,1.875,0,0,1-1.869-1.781l-4.438-89.886C1095.209,417.259,1095.927,405.018,1095.927,405.018Z" transform="translate(197.591 142.238)" fill="#373449"/><g transform="translate(1288.96 452.995)"><path d="M1129.135,322.988a2.721,2.721,0,0,1,.166-.41c.663-1.4,1.541-2.814,1.283-4.434a4.831,4.831,0,0,0-1.74-2.8,4.384,4.384,0,0,1-1.74-2.981,9.77,9.77,0,0,0-.76-3.516,5.6,5.6,0,0,0-1.808-1.768,11.682,11.682,0,0,0-6.4-2.134,16.881,16.881,0,0,0-3.281.686c-.677.125-1.061-.173-1.742-.323a10.006,10.006,0,0,0-1.9-.234,10.329,10.329,0,0,0-4.244.83c-2.826,1.184-6.581,3.984-7.347,7.126a26.352,26.352,0,0,1-.568,3.4c-.831,2.131-3.35,2.5-4.84,4.029a4.107,4.107,0,0,0-1.246,3.689,20.352,20.352,0,0,1,.713,2.131,3.731,3.731,0,0,1-.491,2.1c-.82,1.63-2.166,3.16-2.069,4.982a5.379,5.379,0,0,0,.7,2.173c4.371,8.326,15.814,9.3,24.082,8.187,5.013-.674,10.291-2.154,14.294-5.371a8.417,8.417,0,0,0,3.349-5.009c.546-3.572-2.271-6.52-4.1-9.256a1.591,1.591,0,0,1-.343-.808A.978.978,0,0,1,1129.135,322.988Z" transform="translate(-1091.109 -304.628)" fill="#373449"/><g transform="translate(8.375 0)"><g transform="translate(0 9.747)"><path d="M1122.265,321.948l.587.036a2.461,2.461,0,0,1,2.306,2.606l-.15,2.456a2.461,2.461,0,0,1-2.606,2.307l-1.063-.066c-.064.014-.125.036-.19.045l-1.2,16.322c-.705,3.5-3.544,5.9-6.5,5.474-3.165-.452-5.254-3.955-4.615-7.736l.067-3.341c-4.4-.269-9.38-4.434-8.819-9.926l1.133-11.082a4.335,4.335,0,0,1,.528-1.652c4.29,3.711,7.231-2.048,9.823-2.3,5.953-.577,8.59,1.608,9.886,6.855C1121.576,322.445,1122.255,321.977,1122.265,321.948Z" transform="translate(-1100.042 -315.004)" fill="#f9dcd2"/><path d="M1117.4,341.78l-7.913.132-.057,2.828Z" transform="translate(-1100.628 -316.676)" fill="#ef929c" opacity="0.37"/></g><path d="M1111.57,309.042a4.463,4.463,0,0,0-.968,3.268c.408,3.13,3.973,3.467,5.982,5.138a3.925,3.925,0,0,1,1.545,3.018c-.068,2.1-2.318,3.576-2.621,5.659-.25,1.713,1.285,2.6,1.6,4.144.248,1.2-.49,2.355-1.134,3.4-.706,1.144-1.793,1.84-1.646,3.355a3.679,3.679,0,0,0,1.723,2.631,6.7,6.7,0,0,0,3.081.943,21.532,21.532,0,0,0,6.188-.414c3.611-.736,7.721-3.258,9.391-6.659,2.046-4.164-5.07-9.123-4.376-10.562s3.207-4.858-.352-7.655c-3.2-2.518.473-3.455-3.685-7.84C1124.51,305.575,1118.292,301.379,1111.57,309.042Z" transform="translate(-1100.699 -304.608)" fill="#373449"/><g transform="translate(1.795 16.692)"><path d="M1104.682,323.848a1.227,1.227,0,0,1-.64.011c-.226-.035-.454-.062-.653-.076s-.428-.022-.656-.022a1.225,1.225,0,0,1-.632-.107c-.165-.1-.219-.372,0-.68a1.572,1.572,0,0,1,1.383-.558,1.589,1.589,0,0,1,1.29.758C1104.95,323.513,1104.859,323.77,1104.682,323.848Z" transform="translate(-1101.956 -322.412)" fill="#373449"/><g transform="translate(7.859 0.48)"><path d="M1113.064,324.36a1.227,1.227,0,0,1-.64.011c-.226-.035-.454-.062-.653-.076s-.427-.022-.656-.022a1.223,1.223,0,0,1-.632-.107c-.165-.1-.219-.372,0-.68a1.572,1.572,0,0,1,1.383-.558,1.588,1.588,0,0,1,1.29.758C1113.333,324.024,1113.243,324.282,1113.064,324.36Z" transform="translate(-1110.339 -322.924)" fill="#373449"/></g><path d="M1102.941,327.25h0a.51.51,0,0,1-.459-.557l.1-1.015a.511.511,0,0,1,.557-.458h0a.51.51,0,0,1,.458.557l-.1,1.015A.51.51,0,0,1,1102.941,327.25Z" transform="translate(-1101.988 -322.587)" fill="#373449"/><path d="M1111.058,328.037h0a.509.509,0,0,1-.458-.557l.1-1.014a.51.51,0,0,1,.557-.458h0a.51.51,0,0,1,.458.557l-.1,1.015A.509.509,0,0,1,1111.058,328.037Z" transform="translate(-1102.496 -322.636)" fill="#373449"/><path d="M1107.077,325.563l-1.517,2.267a1.208,1.208,0,0,0,.971,1.81l.814.05" transform="translate(-1102.171 -322.609)" fill="none" stroke="#ef929c" stroke-linecap="round" stroke-miterlimit="10" stroke-width="0.5"/><g transform="translate(5.328 8.627)"><path d="M0,0H4.688a0,0,0,0,1,0,0V.82A1.993,1.993,0,0,1,2.7,2.813H.9a.9.9,0,0,1-.9-.9V0A0,0,0,0,1,0,0Z" transform="translate(0.171 0) rotate(3.494)" fill="#373449"/><path d="M1110.581,334.674l-.1-.007a.971.971,0,0,1-.788-.891c.063-1.032,2.87-.853,2.87-.853h0A1.868,1.868,0,0,1,1110.581,334.674Z" transform="translate(-1107.767 -331.694)" fill="#ef929c"/></g></g></g></g><circle cx="12.049" cy="12.049" r="12.049" transform="matrix(0.159, -0.987, 0.987, 0.159, 1497.508, 372.255)" opacity="0.59" fill="url(#a)"/></g></svg>