<svg xmlns="http://www.w3.org/2000/svg" width="834.393" height="529.642" viewBox="0 0 834.393 529.642"><g transform="translate(-684.696 -331.665)"><g transform="translate(1093 381.647)"><path d="M455.875,215.8H435.807a3.421,3.421,0,0,0-3.421,3.421v7.54a3.419,3.419,0,0,0,2.593,3.316v4.454l4.5-4.349h16.4a3.42,3.42,0,0,0,3.421-3.421v-7.54A3.42,3.42,0,0,0,455.875,215.8Z" transform="translate(-432.386 -215.803)" fill="#fb5353"/><g transform="translate(6.526 5.923)"><path d="M441.2,222.744a1.3,1.3,0,1,1-1.3-1.3A1.3,1.3,0,0,1,441.2,222.744Z" transform="translate(-438.6 -221.443)" fill="#fff"/><path d="M446.561,222.744a1.3,1.3,0,1,1-1.3-1.3A1.3,1.3,0,0,1,446.561,222.744Z" transform="translate(-438.331 -221.443)" fill="#fff"/><path d="M451.92,222.744a1.3,1.3,0,1,1-1.3-1.3A1.3,1.3,0,0,1,451.92,222.744Z" transform="translate(-438.062 -221.443)" fill="#fff"/></g></g><g transform="translate(1333.09 452.647)" opacity="0.03"><path d="M455.875,215.8H435.807a3.421,3.421,0,0,0-3.421,3.421v7.54a3.419,3.419,0,0,0,2.593,3.316v4.454l4.5-4.349h16.4a3.42,3.42,0,0,0,3.421-3.421v-7.54A3.42,3.42,0,0,0,455.875,215.8Z" transform="translate(-432.386 -215.803)" fill="#fb5353"/><g transform="translate(6.526 5.923)"><path d="M441.2,222.744a1.3,1.3,0,1,1-1.3-1.3A1.3,1.3,0,0,1,441.2,222.744Z" transform="translate(-438.6 -221.443)" fill="#fff"/><path d="M446.561,222.744a1.3,1.3,0,1,1-1.3-1.3A1.3,1.3,0,0,1,446.561,222.744Z" transform="translate(-438.331 -221.443)" fill="#fff"/><path d="M451.92,222.744a1.3,1.3,0,1,1-1.3-1.3A1.3,1.3,0,0,1,451.92,222.744Z" transform="translate(-438.062 -221.443)" fill="#fff"/></g></g><g transform="translate(1252.486 421.64) rotate(39)" fill="none" opacity="0.33"><path d="M5.478,0l5.478,9.586H0Z" stroke="none"/><path d="M 5.477949142456055 2.015557765960693 L 1.723176002502441 8.586416244506836 L 9.232722282409668 8.586416244506836 L 5.477949142456055 2.015557765960693 M 5.477949142456055 -2.86102294921875e-06 L 10.95589923858643 9.586416244506836 L -9.5367431640625e-07 9.586416244506836 L 5.477949142456055 -2.86102294921875e-06 Z" stroke="none" fill="#fb5353"/></g><g transform="translate(1390 372.217)"><path d="M1166.854,395.153l1.435-4.3a.479.479,0,0,1,.807-.173l3.992,4.324a.479.479,0,0,0,.8-.159l2.393-6.5a.479.479,0,0,1,.825-.132l5.392,6.83a.478.478,0,0,0,.78-.041l4.712-7.46" transform="translate(-1166.854 -387.332)" fill="none" stroke="#fb5353" stroke-linecap="round" stroke-miterlimit="10" stroke-width="2"/><path d="M1195.561,387.657l1.691-.423v1.691" transform="translate(-1175.904 -387.235)" fill="none" stroke="#fb5353" stroke-linecap="round" stroke-miterlimit="10" stroke-width="2"/></g><g transform="translate(3.393 31)"><path d="M12.22,1.56,2.091,2.249,0,1.965,2.189,0Z" transform="matrix(0.695, -0.719, 0.719, 0.695, 1163.732, 514.059)" fill="#4200ff" opacity="0.46"/><path d="M10.312.624.269,0,0,4.107Z" transform="matrix(0.695, -0.719, 0.719, 0.695, 1165.732, 513.336)" fill="#8155ff" opacity="0.46"/><path d="M10.031,4.419.272,0,0,2.859Z" transform="matrix(0.695, -0.719, 0.719, 0.695, 1163.197, 510.497)" fill="#8155ff" opacity="0.46"/><g transform="translate(1405.412 499.557)"><path d="M1166.854,395.153l1.435-4.3a.479.479,0,0,1,.807-.173l3.992,4.324a.479.479,0,0,0,.8-.159l2.393-6.5a.479.479,0,0,1,.825-.132l5.392,6.83a.478.478,0,0,0,.78-.041l4.712-7.46" transform="translate(-1166.854 -387.332)" fill="none" stroke="#fb5353" stroke-linecap="round" stroke-miterlimit="10" stroke-width="2"/><path d="M1195.561,387.657l1.691-.423v1.691" transform="translate(-1175.904 -387.234)" fill="none" stroke="#fb5353" stroke-linecap="round" stroke-miterlimit="10" stroke-width="2"/></g><path d="M826.977,432.292c2.75-17.639-3.688-34.024-2.844-51.168,1.623-32.967,38.374-55.728,51.179-85.364,16.216-37.526,15.438-79.578-4.255-116.145-9.491-17.624-23.355-34-42.289-45.33-29.187-17.461-67.431-21.29-103.4-19.076-53.528,3.3-110.011,21.645-163.83,16.64-29.7-2.761-38.767-28.211-54.106-45-17.348-18.987-40.972-33.9-67.09-43.829C392.239,24.738,334.5,23.007,285.335,39.587c-52.491,17.7-98.244,60.927-95.238,109.812,1.391,22.616,12.826,45.079,7.533,67.3-6.643,27.886-33.183,53.3-52.415,76.022-21.238,25.094-34.1,55.02-36.618,85.55-2.858,34.615,7.605,69.887,29.464,99.537H808.523A109.109,109.109,0,0,0,826.977,432.292Z" transform="translate(573.168 352.499)" fill="#f7ff0e" opacity="0.09"/><g transform="translate(1003.439 690.108)"><g transform="translate(22.653 21.678)"><path d="M170.465,412.553s-4.182-19.231,18.915-35.085Z" transform="translate(-170.169 -377.468)" fill="#f7cb2d"/><path d="M170.394,412.775s18.732-7.759,18.915-35.086Z" transform="translate(-170.218 -377.516)" fill="#f7aa2d"/></g><g transform="translate(0 21.678)"><path d="M160.152,412.553s4.182-19.231-18.915-35.085Z" transform="translate(-141.237 -377.468)" fill="#f7aa2d"/><path d="M160.306,412.775s-18.732-7.759-18.915-35.086Z" transform="translate(-141.27 -377.516)" fill="#f7cb2d"/></g><g transform="translate(12.68)"><path d="M165.6,405.138s-18.368-21.291,0-55.357Z" transform="translate(-157.432 -349.781)" fill="#f7cb2d"/><path d="M167.814,405.509s18.369-21.291,0-55.358Z" transform="translate(-159.685 -349.861)" fill="#f7aa2d"/></g><path d="M147.005,417.021h33.471s0,26.116-16.735,26.116S147.005,417.021,147.005,417.021Z" transform="translate(-142.489 -364.374)" fill="#100c82"/></g><ellipse cx="6.573" cy="6.573" rx="6.573" ry="6.573" transform="translate(1296.588 781.14)" fill="#ff6a6a" opacity="0.1"/><rect width="268.945" height="202.949" transform="translate(1136.941 513.636)" fill="#8155ff"/><rect width="260.013" height="190.225" transform="translate(1141.407 522.071)" fill="#fff6f6"/><g transform="translate(1157.782 563.28)"><rect width="22.725" height="4.888" rx="2.444" fill="#b6c3f4"/><rect width="22.725" height="4.888" rx="2.444" transform="translate(34.09)" fill="#b6c3f4"/><rect width="22.725" height="4.888" rx="2.444" transform="translate(68.179)" fill="#b6c3f4"/><rect width="22.725" height="4.888" rx="2.444" transform="translate(102.269)" fill="#b6c3f4"/><rect width="22.725" height="4.888" rx="2.444" transform="translate(136.359)" fill="#b6c3f4"/><rect width="22.725" height="4.888" rx="2.444" transform="translate(170.448)" fill="#b6c3f4"/><rect width="22.725" height="4.888" rx="2.444" transform="translate(204.538)" fill="#98abef" stroke="#98abef" stroke-miterlimit="10" stroke-width="0.25"/></g><rect width="260.013" height="35.176" transform="translate(1141.407 517.109)" fill="#fb5353"/><path d="M363.711,276.845l2.8,6.321,6.31.687-4.981,4.331,1.5,7.008-5.63-3.644-5.63,3.644,1.5-7.008-4.981-4.331,6.31-.687Z" transform="translate(939.843 327.035)" fill="#f7cb2d"/><g transform="translate(1187.235 574.201)"><line y2="130.39" fill="none" stroke="#98abef" stroke-miterlimit="10" stroke-width="0.5"/><line y2="130.39" transform="translate(33.672)" fill="none" stroke="#98abef" stroke-miterlimit="10" stroke-width="0.5"/><line y2="130.39" transform="translate(67.343)" fill="none" stroke="#98abef" stroke-miterlimit="10" stroke-width="0.5"/><line y2="130.39" transform="translate(101.015)" fill="none" stroke="#98abef" stroke-miterlimit="10" stroke-width="0.5"/><line y2="130.391" transform="translate(134.687 1.693)" fill="none" stroke="#98abef" stroke-miterlimit="10" stroke-width="0.5"/><line y2="130.391" transform="translate(168.358 1.693)" fill="none" stroke="#98abef" stroke-miterlimit="10" stroke-width="0.5"/></g><g transform="translate(1153.541 599.751)"><line x1="235.745" fill="none" stroke="#98abef" stroke-miterlimit="10" stroke-width="0.5"/><line x1="235.745" transform="translate(0 26.995)" fill="none" stroke="#98abef" stroke-miterlimit="10" stroke-width="0.5"/><line x1="235.745" transform="translate(0 53.99)" fill="none" stroke="#98abef" stroke-miterlimit="10" stroke-width="0.5"/><line x1="235.745" transform="translate(0 80.985)" fill="none" stroke="#98abef" stroke-miterlimit="10" stroke-width="0.5"/></g><rect width="18.796" height="2.919" rx="1.459" transform="translate(1157.589 608.482)" fill="#b6c3f4"/><path d="M1.459,0H17.337A1.459,1.459,0,0,1,18.8,1.459v0a1.459,1.459,0,0,1-1.459,1.459H1.459A1.459,1.459,0,0,1,0,1.459v0A1.459,1.459,0,0,1,1.459,0Z" transform="translate(1229.266 585.119)" fill="#b6c3f4"/><rect width="18.514" height="1.407" rx="0.703" transform="translate(1262.46 663.522)" fill="#b6c3f4"/><rect width="18.514" height="1.407" rx="0.703" transform="translate(1262.46 667.008)" fill="#b6c3f4"/><rect width="18.514" height="1.407" rx="0.704" transform="translate(1262.46 670.491)" fill="#b6c3f4"/><rect width="13.769" height="1.388" rx="0.694" transform="translate(1157.589 614.653)" fill="#b6c3f4"/><g transform="translate(1283.659 593.45)"><path d="M347.179,296.543c6.48,9.105,18.357,12.971,27.332,5.2,8.873-7.679,7-21.72.095-30.13-17.431-21.224-46.011,18.775-23.315,31.413a1,1,0,0,0,1.158-1.589,19.192,19.192,0,0,1-2.121-23.962c5.292-8,15.783-11.543,22.32-3.025,5.33,6.945,7.13,18.323-.024,24.705-7.506,6.695-18.1,3.566-23.927-3.854-.693-.883-2.181.309-1.518,1.24Z" transform="translate(-342.888 -265.518)" fill="#d3196a"/></g><path d="M225.194,194.6a3.924,3.924,0,1,0-3.918,4.149A4.038,4.038,0,0,0,225.194,194.6Z" transform="translate(950.717 333.879)" fill="#f2eafa"/><path d="M241.689,194.6a3.924,3.924,0,1,0-3.918,4.149A4.038,4.038,0,0,0,241.689,194.6Z" transform="translate(949.41 333.879)" fill="#f2eafa"/><path d="M2.459,0h0A2.459,2.459,0,0,1,4.918,2.459V25.095a2.459,2.459,0,0,1-2.459,2.459h0A2.459,2.459,0,0,1,0,25.094V2.459A2.459,2.459,0,0,1,2.459,0Z" transform="translate(1169.479 503.36)" fill="#100c82"/><path d="M2.459,0h0A2.459,2.459,0,0,1,4.917,2.459V25.095a2.459,2.459,0,0,1-2.459,2.459h0A2.459,2.459,0,0,1,0,25.095V2.459A2.459,2.459,0,0,1,2.459,0Z" transform="translate(1184.722 503.36)" fill="#100c82"/><path d="M424.65,194.6a3.924,3.924,0,1,0-3.918,4.149A4.038,4.038,0,0,0,424.65,194.6Z" transform="translate(934.914 333.879)" fill="#f2eafa"/><path d="M441.146,194.6a3.924,3.924,0,1,0-3.918,4.149A4.038,4.038,0,0,0,441.146,194.6Z" transform="translate(933.607 333.879)" fill="#f2eafa"/><path d="M2.459,0h0A2.459,2.459,0,0,1,4.918,2.459V25.095a2.459,2.459,0,0,1-2.459,2.459h0A2.459,2.459,0,0,1,0,25.094V2.459A2.459,2.459,0,0,1,2.459,0Z" transform="translate(1353.133 503.36)" fill="#100c82"/><path d="M2.459,0h0A2.459,2.459,0,0,1,4.918,2.459V25.095a2.459,2.459,0,0,1-2.459,2.459h0A2.459,2.459,0,0,1,0,25.095V2.459A2.459,2.459,0,0,1,2.459,0Z" transform="translate(1368.376 503.36)" fill="#100c82"/><rect width="13.232" height="13.232" transform="matrix(0.933, -0.359, 0.359, 0.933, 1336.22, 663.082)" fill="#f7aa2d"/><path d="M407.872,339.9a.744.744,0,1,0-.745.744A.745.745,0,0,0,407.872,339.9Z" transform="translate(935.74 322.098)" fill="#d3196a"/><rect width="13.232" height="13.232" transform="translate(1330.801 659.795) rotate(11.822)" fill="#f7cb2d"/><path d="M401.046,340.713a.744.744,0,1,0-.745.744A.744.744,0,0,0,401.046,340.713Z" transform="translate(936.281 322.033)" fill="#d3196a"/><g transform="translate(1228.562 455.605)"><path d="M324.394,139.107a11.928,11.928,0,0,1-11.606-2.1,7.347,7.347,0,0,1-2.47-3.655,4.249,4.249,0,0,1,1.063-4.135c1.113-1.019,2.846-1.263,3.756-2.469,1.14-1.507.431-3.624.152-5.493-.333-2.23.378-4.97,2.516-5.686,1.424-.478,3.047.109,4.463-.394s2.229-1.916,3.184-3.067,2.526-2.166,3.866-1.5a9,9,0,0,1,1.474,1.224c1.855,1.482,4.542.776,6.856.244s5.317-.507,6.387,1.612c1.294,2.563-1.462,6.046.222,8.371a7.656,7.656,0,0,0,1.754,1.471c2.378,1.78,3.65,5.355,2,7.825-2.055,3.076-6.862,2.607-9.728,4.945" transform="translate(-277.835 -110.394)" fill="#100c82"/><path d="M336.476,158.778s-1.7-1.43-1.511-7.325c0,0,5.134,0,6.18-3.709s1.046-12.265.951-17.495c0,0,.409-2.947-3.551-4.944s-13.943-2.758-15.37.761-1.331,9.793-1.331,9.793a4.477,4.477,0,0,0-4.991-2.33c-3.518.761-1.759,12.123,4.611,8.034,0,0,1.715,15.14-3.042,15.262,0,0,.371,9.5,10.311,9.5S336.476,158.778,336.476,158.778Z" transform="translate(-278.223 -111.442)" fill="#ff979c"/><path d="M337.664,137.878A7.989,7.989,0,0,0,338.7,141.2c.681,1.154.36,1.9-1.389,2.464" transform="translate(-279.985 -112.572)" fill="none" stroke="#eb5772" stroke-linecap="round" stroke-miterlimit="10" stroke-width="0.4"/><g transform="translate(52.649 24.26)"><path d="M333.115,136.813c.326.182.332.691.316,1.043a4.374,4.374,0,0,1-.189,1.252.5.5,0,0,1-.98-.06c-.092-.491-.028-2.729.853-2.236Z" transform="translate(-332.231 -136.742)" fill="#4a31b2"/></g><g transform="translate(59.022 24.637)"><path d="M339.894,137.187c.378.176.416.6.429,1a4.266,4.266,0,0,1-.122,1.34.5.5,0,0,1-.979-.06,4.184,4.184,0,0,1-.006-1.472c.049-.311.245-1.015.679-.812Z" transform="translate(-339.153 -137.151)" fill="#4a31b2"/></g><path d="M317.412,136.542s2.806-.244,3.415,4.27" transform="translate(-278.408 -112.466)" fill="none" stroke="#eb5772" stroke-linecap="round" stroke-miterlimit="10" stroke-width="0.4"/><path d="M317.279,139.011a3.158,3.158,0,0,1,2.928-.366" transform="translate(-278.398 -112.618)" fill="none" stroke="#eb5772" stroke-linecap="round" stroke-miterlimit="10" stroke-width="0.4"/><g transform="translate(49.244 17.991)"><path d="M333.633,132.029c.325-1.133-.925-1.943-1.892-2.072a3.326,3.326,0,0,0-3.139,1.712.532.532,0,0,0,.456.795c.773-.072,1.525-.315,2.307-.345a10.415,10.415,0,0,1,1.748.308.543.543,0,0,0,.521-.4Z" transform="translate(-328.533 -129.934)" fill="#100c82"/></g><g transform="translate(58.522 19.004)"><path d="M338.9,132.714a6.787,6.787,0,0,0,.945.213,4.849,4.849,0,0,0,1.243.4l-.4-.107c.346.152,1,.7,1.295.171a1,1,0,0,0-.041-.791,2.258,2.258,0,0,0-.493-.98,1.805,1.805,0,0,0-2.156-.376c-.382.207-1.074,1.148-.4,1.473Z" transform="translate(-338.61 -131.034)" fill="#100c82"/></g><path d="M321.512,132.847a7.613,7.613,0,0,0,1.112,3c2.273-2.212.318-6.708,2.628-8.881a4.786,4.786,0,0,1,3.193-1.069c2.237-.062,4.433.578,6.665.743s4.716-.272,6.14-2a1.7,1.7,0,0,0,.446-1.646,1.935,1.935,0,0,0-.912-.848,17.977,17.977,0,0,0-11.058-2.19,12.069,12.069,0,0,0-4.312,1.307,9.417,9.417,0,0,0-3.7,12.1" transform="translate(-278.677 -111.141)" fill="#100c82"/><g transform="translate(50.69 30.527)"><path d="M333.714,144.274a2.2,2.2,0,0,0-2.44-.557,2.386,2.386,0,0,0-.932,3.086,4.636,4.636,0,0,0,3.873,2.757,3.6,3.6,0,0,0,3.388-1.675,1.459,1.459,0,0,0-.927-2.3C334.52,145.308,334.784,145.135,333.714,144.274Z" transform="translate(-330.105 -143.548)" fill="#5b0c24"/><path d="M334.089,149.649a4.375,4.375,0,0,1-3.759-2.666,2.558,2.558,0,0,1,.043-2.212,5.827,5.827,0,0,1,4.906,4.778A5.774,5.774,0,0,1,334.089,149.649Z" transform="translate(-330.103 -143.645)" fill="#d3196a"/></g><path d="M343.936,160.807l2.806-2.562s-3.538.122-7.93,0c-2.087-.058-4.851.232-4.317-4.4l-5.808.494-8.012,3.334a3.974,3.974,0,0,1-2.724,1.545c-1.668.082-6.954,0-8.662,1.627s11.792,9.678,19.844,9.678S343.936,160.807,343.936,160.807Z" transform="translate(-277.753 -113.837)" fill="#ff979c"/><path d="M306.441,160.454l-1.925.572s-17.323,6.015-26.472,22.363,4,41.229,21.69,47.573l3.858-4.656s-14.935-12.542-12.617-29.011,16.591-19.884,16.591-19.884h42.453l4.635-15.981-10.613-2.806L325.562,169.1Z" transform="translate(-275.052 -114.216)" fill="#f7aa2d"/><path d="M325.044,175.052s-4.221.407-7.172.935a9.822,9.822,0,0,0-4.864,3.291c-.651.976,4.228-.488,6.343-1.789S323.743,177.329,325.044,175.052Z" transform="translate(-278.055 -115.517)" fill="#f0767b"/><path d="M334.188,175.517s-6.1-.574-9.108-.737-5.965,1.048-12.28,4.307c0,0-1.69,1.351,1.645.944a26.559,26.559,0,0,0,5.756-1.343,4.852,4.852,0,0,0,4.363.446s6.128,1.587,8.568-.609l2.765-.163-.244-2.846Z" transform="translate(-278.009 -115.495)" fill="#ff979c"/><path d="M349.977,158.624s31.189,3.984,42.575,15.7c0,0,3.416,3.579-9.434,3.9s-27.163-.813-27.163-.813l1.464-6.506Z" transform="translate(-280.988 -114.216)" fill="#f7aa2d"/><path d="M335.094,178.655V174s24.724-4.342,40.989-3.567,24.4,9.771,3.741,9.461S335.094,178.655,335.094,178.655Z" transform="translate(-279.809 -115.144)" fill="#f7cb2d"/><path d="M301.857,236.785s.666,4.523,2.461,7.184,2.993,2.528,3.792,1.4a1.942,1.942,0,0,0,2.2-1.331,1.609,1.609,0,0,0,1.663-1.6s2.794,3.592,4.656,5.588,2.993.731,1.4-1.929-4.855-7.982-4.855-7.982,1.6-3.193-.134-4.656-7.317-1.331-7.317-1.331Z" transform="translate(-277.176 -120.039)" fill="#ff979c"/><path d="M311.9,235.669c1.064,1.2,1.972,2.423,1.972,2.423" transform="translate(-277.972 -120.32)" fill="none" stroke="#eb5772" stroke-linecap="round" stroke-miterlimit="10" stroke-width="0.4"/><path d="M313.448,159.166s14.965,11.729,26.16-.837c0,0,2.284-1.371,6.968.114,0,0-3.541,11.309-17.478,11.766-16.556.543-22.047-9.253-22.047-9.253S309.107,158.862,313.448,159.166Z" transform="translate(-277.587 -114.147)" fill="#f7cb2d"/></g><g transform="translate(1195.849 491.452)" opacity="0.11"><path d="M963.8,202.612l-3.8-2.057a16.527,16.527,0,0,0,.495-4.778l4.142-1.232a1.487,1.487,0,0,0,1-1.849l-1.468-4.937a1.487,1.487,0,0,0-1.849-1l-4.143,1.231a16.5,16.5,0,0,0-3.025-3.731l2.057-3.8a1.488,1.488,0,0,0-.6-2.016l-4.529-2.453a1.487,1.487,0,0,0-2.016.6l-2.057,3.8a16.473,16.473,0,0,0-4.778-.5L942,175.751a1.487,1.487,0,0,0-1.849-1l-4.938,1.468a1.486,1.486,0,0,0-1,1.849l1.232,4.142a16.485,16.485,0,0,0-3.731,3.026l-3.8-2.058a1.487,1.487,0,0,0-2.015.6l-2.453,4.53a1.486,1.486,0,0,0,.6,2.015l3.8,2.057a16.5,16.5,0,0,0-.495,4.778l-4.142,1.232a1.487,1.487,0,0,0-1,1.849l1.468,4.937a1.487,1.487,0,0,0,1.849,1l4.143-1.231a16.459,16.459,0,0,0,3.025,3.73l-2.057,3.8a1.487,1.487,0,0,0,.6,2.016l4.529,2.453a1.488,1.488,0,0,0,2.016-.6l2.057-3.8a16.5,16.5,0,0,0,4.778.5l1.231,4.143a1.487,1.487,0,0,0,1.849,1l4.937-1.468a1.486,1.486,0,0,0,1-1.849l-1.232-4.142a16.481,16.481,0,0,0,3.731-3.026l3.8,2.058a1.487,1.487,0,0,0,2.015-.6l2.453-4.53A1.486,1.486,0,0,0,963.8,202.612Zm-25.464,4.174a11.735,11.735,0,1,1,15.907-4.73A11.734,11.734,0,0,1,938.336,206.785Z" transform="translate(-922.147 -174.688)" fill="none" stroke="#4c65ba" stroke-miterlimit="10" stroke-width="1"/></g><g transform="translate(1006.674 515.676)" opacity="0.32"><path d="M1166.854,399.943l2.338-7.013a.781.781,0,0,1,1.315-.282l6.505,7.047a.78.78,0,0,0,1.306-.259l3.9-10.585a.78.78,0,0,1,1.344-.214l8.786,11.13a.78.78,0,0,0,1.272-.067l7.678-12.156" transform="translate(-1166.854 -387.199)" fill="none" stroke="#fb5353" stroke-linecap="round" stroke-miterlimit="10" stroke-width="2"/><path d="M1195.561,387.924l2.755-.689v2.756" transform="translate(-1163.528 -387.235)" fill="none" stroke="#fb5353" stroke-linecap="round" stroke-miterlimit="10" stroke-width="2"/></g><g transform="translate(1450.569 649.64) rotate(39)" fill="none"><path d="M5.478,0l5.478,9.586H0Z" stroke="none"/><path d="M 5.477949142456055 2.015557765960693 L 1.723176002502441 8.586416244506836 L 9.232722282409668 8.586416244506836 L 5.477949142456055 2.015557765960693 M 5.477949142456055 -2.86102294921875e-06 L 10.95589923858643 9.586416244506836 L -9.5367431640625e-07 9.586416244506836 L 5.477949142456055 -2.86102294921875e-06 Z" stroke="none" fill="#fb5353"/></g><g transform="translate(1507.182 675.5) rotate(39)" fill="none" opacity="0.18"><path d="M5.478,0l5.478,9.586H0Z" stroke="none"/><path d="M 5.477949142456055 2.015557765960693 L 1.723176002502441 8.586416244506836 L 9.232722282409668 8.586416244506836 L 5.477949142456055 2.015557765960693 M 5.477949142456055 -2.86102294921875e-06 L 10.95589923858643 9.586416244506836 L -9.5367431640625e-07 9.586416244506836 L 5.477949142456055 -2.86102294921875e-06 Z" stroke="none" fill="#8155ff"/></g><ellipse cx="6.573" cy="6.573" rx="6.573" ry="6.573" transform="translate(1444.519 571.485)" fill="#ff6a6a" opacity="0.1"/><ellipse cx="6.573" cy="6.573" rx="6.573" ry="6.573" transform="translate(1448.17 564.912)" fill="#ff6a6a" opacity="0.1"/><g transform="translate(1334.072 518.1)"><path d="M547.3,241.86l1.674-2.081s2.031,1.63,7.563-2.832c.019-.145-.863-10.43-.414-10.242-1.668-.7-6.715.647-8.337,1.965S547.3,241.86,547.3,241.86Z" transform="translate(-411.921 -171.201)" fill="#f59196"/><path d="M556.668,236.881c.286.684-4.945,5.406-7.578,3.585l-.741-4.022a6,6,0,0,1,5.584-.946C557.169,236.582,556.668,236.881,556.668,236.881Z" transform="translate(-412.034 -171.887)" fill="#ff979c"/><g transform="translate(134.997 39.655)"><path d="M548.762,212.571l-.223-2.074,1.744-.989.321,2.988Z" transform="translate(-547.047 -209.508)" fill="#d3196a"/><path d="M551.243,212.827c-.669-.237-.646-1.226-.646-1.226l-.891.1-.509.054-.891.1s.232.962-.371,1.335c-.752.465-1.181.991-.925,3.369.211,1.967,2.364,1.532,3.1,1.322.767.048,2.963.016,2.751-1.951C552.608,213.544,552.077,213.121,551.243,212.827Z" transform="translate(-546.919 -209.674)" fill="#100c82"/><path d="M555.059,248.31a1.717,1.717,0,1,0-1.524,1.891A1.718,1.718,0,0,0,555.059,248.31Z" transform="translate(-547.292 -212.461)" fill="#d3196a"/><rect width="6.134" height="29.32" transform="translate(0 7.196) rotate(-6.133)" fill="#d3196a"/><rect width="6.134" height="1.595" transform="translate(2.962 34.762) rotate(-6.133)" fill="#100c82"/><rect width="6.134" height="1.595" transform="translate(0.167 8.623) rotate(-6.133)" fill="#100c82"/><rect width="1.349" height="15.509" rx="0.573" transform="translate(2.559 17.232) rotate(-6.135)" fill="#100c82"/><path d="M.365,0h.13A.364.364,0,0,1,.859.364V15.706a.365.365,0,0,1-.365.365H.364A.364.364,0,0,1,0,15.706V.365A.365.365,0,0,1,.365,0Z" transform="translate(4.819 16.425) rotate(-6.117)" fill="#100c82"/></g><path d="M547.956,240.554l-2.459,3.108-2.841-3.991,1.758-3.019s-1.767-8.041,1.332-9.558c2.275-1.113,3.405-1.319,4.17-1.809,2.34-1.5,3,1.612-2.566,4.214C547.349,229.5,551.139,235.225,547.956,240.554Z" transform="translate(-411.583 -171.072)" fill="#ff979c"/><path d="M555.9,237.472A2.221,2.221,0,0,0,557,234.181s3.1-1.128.878-3.3c0,0,2.185-1.719-.272-2.924,0,0,1.822-3-1.541-3.072s-6.358,1.734-6.389,3.65c-.024,1.465,2.219-.032,6.153-.853,0,0-6.4,1.229-6.323,2.356.142,2.172,3.686,1.05,6.771,1.125,0,0-6.073-.064-5.9,1.376s6.2,1.74,6.2,1.74-5.4-1.016-5.707-.381C550.15,235.372,555.9,237.472,555.9,237.472Z" transform="translate(-412.126 -171.071)" fill="#ffa6aa"/><path d="M538.944,242.879l4.35-4.456a42.071,42.071,0,0,1,4.437,3.884l-3.043,4.289Z" transform="translate(-411.289 -172.144)" fill="#98abef"/><path d="M481.813,232.849c.34.811,6.634,18.348,17.9,24.5,12.658,6.91,29.767,6.1,40.541-12.911a31.326,31.326,0,0,0-4.8-4.641s-11.547,8.715-21.6,5.121c-11.069-3.956-13.125-12.086-15.99-18.326-3.644-7.935-7.48-12.683-14.289-10.6-6.07,1.858-4.039,19.135-4.039,19.135" transform="translate(-406.556 -170.328)" fill="#6c88ef"/><path d="M449.734,210.172s2.433-.562,2.246-6.362c0,0-5.052,0-6.081-3.648s-1.029-12.069-.935-17.214c0,0-.4-2.9,3.493-4.864s13.719-2.714,15.123.749,1.31,9.635,1.31,9.635a4.405,4.405,0,0,1,4.911-2.292c3.461.749,1.73,11.928-4.538,7.906,0,0-1.59,13.565,1.684,15.529l-8.836,8.836Z" transform="translate(-403.84 -167.232)" fill="#ff9e9e"/><path d="M465.7,175.632s-.94-9.175-8.036-9.191c-7.924-.017-7.147,5.658-13.31,5.777-12.483.239-6,15.363,4.132,6.946,2.895-2.405,9.823-3.929,13.752-.468v4.678s.094,3.648,1.591,1.777v2.714s-.085,1.4.57,1.4.421-2.267.421-2.267a6.77,6.77,0,0,1,2.648-1.643,18.343,18.343,0,0,1,1.319-2.888C471.246,177.979,467.389,174.907,465.7,175.632Z" transform="translate(-403.252 -166.441)" fill="#f7cb2d"/><path d="M452.357,196.725a18.6,18.6,0,0,0,5.051-2.769" transform="translate(-404.429 -168.621)" fill="none" stroke="#eb5772" stroke-linecap="round" stroke-miterlimit="10" stroke-width="0.4"/><path d="M451.609,188.285a7.856,7.856,0,0,1-1.216,3.2c-.738,1.092-.468,1.848,1.216,2.5" transform="translate(-404.243 -168.172)" fill="none" stroke="#eb5772" stroke-linecap="round" stroke-miterlimit="10" stroke-width="0.4"/><g transform="translate(51.122 19.347)"><path d="M456.2,187.509c-.332.16-.368.659-.373,1.006a4.283,4.283,0,0,0,.11,1.24.494.494,0,0,0,.966,0c.12-.476.191-2.679-.7-2.247Z" transform="translate(-455.826 -187.453)" fill="#4a31b2"/></g><g transform="translate(44.843 19.339)"><path d="M449.521,187.472c-.382.15-.445.562-.482.961a4.212,4.212,0,0,0,.041,1.322.494.494,0,0,0,.966,0,4.139,4.139,0,0,0,.094-1.446c-.029-.308-.18-1.011-.618-.838Z" transform="translate(-449.006 -187.445)" fill="#4a31b2"/></g><path d="M469.986,213.662l-5.526-.28.378,2.8-7.3,5.521-8.673-6.283.871-2.039-6.206.28s-11.669.561-16.066,2.432l3.18,23.33s2.644,36.068,4.048,47.575a25.339,25.339,0,0,0,14.313.1l-.056-7.273h15.787l-.015,7.226c7.812,2.246,14.622-10.8,14.622-10.8,1.4-11.507,3.527-37.784,3.527-37.784l3.18-22.37C481.655,214.223,469.986,213.662,469.986,213.662Z" transform="translate(-402.457 -170.16)" fill="#6c88ef"/><path d="M426.251,285.959s1.981,1.421,5.052,3.579,1.754,8.069,1.4,11.015-1.474,9.613-1.895,11.437-1.754,1.894-1.473-1.824.431-4.7.431-4.7-2.326,5.262-2.957,6.385-1.895,0-.07-4.771l1.824-4.771a71.9,71.9,0,0,1-6.245,3.929c-1.684.773-.912-1.4.632-2.876s3.929-3.278,3.929-3.278-.421-5.913.281-7.737L423.8,290.38Z" transform="translate(-401.974 -175.911)" fill="#ff9e9e"/><path d="M426.145,284.186l3.182,3.017a32.981,32.981,0,0,0-2.918,5.441l-6.568-4.239Z" transform="translate(-401.853 -175.77)" fill="#98abef"/><path d="M457.645,216.771s-10.415,1.877,1.988,10.758c0,0,8.734-10.158,1.373-10.419l-1.52,2.621Z" transform="translate(-404.524 -170.429)" fill="#e1d9e8"/><path d="M461.983,227.01l-.6-3.688h-3.392l-.156,3.515Z" transform="translate(-404.863 -170.948)" fill="#b00e54"/><path d="M461.357,217.593l-3.7-.13-1.187,3.464,1.491,2.289h3.392l1.491-2.289Z" transform="translate(-404.755 -170.484)" fill="#d3196a"/><path d="M444.913,213.652s7.166,12.2,14.288,16.842c0,0,6.949-4.973,11.283-16.881a4.636,4.636,0,0,0-3.521,0s-3.281,7.519-8.162,12.48c0,0-8.642-9.84-10.243-12.72A10.032,10.032,0,0,0,444.913,213.652Z" transform="translate(-403.839 -170.15)" fill="#98abef"/><path d="M461.647,216.537l5.1-7.011s1.426,2.923,3.3,3.39l-4.321,12.964Z" transform="translate(-405.165 -169.855)" fill="#f2eafa"/><path d="M457.185,216.2l-5.1-6.671s-2.4,3.409-4.347,3.39l5.841,12.964Z" transform="translate(-404.063 -169.855)" fill="#f2eafa"/><path d="M445.925,433.344a53.412,53.412,0,0,1,0,7.3c-.309,2.526-12.011,8.556-19.028,10.1,0,0,10.58-8.135,12.123-11.081a16.917,16.917,0,0,0,1.684-6.315Z" transform="translate(-402.412 -187.588)" fill="#b00e54"/><path d="M471.273,433.344a53.57,53.57,0,0,0,0,7.3c.31,2.526,12.011,8.556,19.029,10.1,0,0-10.58-8.135-12.123-11.081a16.917,16.917,0,0,1-1.684-6.315Z" transform="translate(-405.917 -187.588)" fill="#b00e54"/><path d="M479.875,287.129v-5.472H434.168v5.472s.377,111.84,3.183,137.942c0,0,6.174,1.684,10.1,0,0,0,4.594-71.856,6.893-121.4h5.884c2.3,49.549,6.894,121.4,6.894,121.4,3.929,1.684,10.1,0,10.1,0C480.034,398.97,479.875,287.129,479.875,287.129Z" transform="translate(-402.988 -175.57)" fill="#100c82"/><path d="M425.9,216.163c-4.526,1.531-17.867,11.232-23.141,24.8-5.664,14.567-2.334,33.89,18.575,44.134a24.19,24.19,0,0,1,3.263-6.3s-7.3-9.465-8.779-16.11c-2.075-9.342,2.076-20.5,12.877-23.042" transform="translate(-400.305 -170.381)" fill="#6c88ef"/><g transform="translate(50.379 15.181)"><path d="M455.75,185.417c.583-.046,1.118-.316,1.7-.346.606-.031,1.19.187,1.8.128.579-.056,1.192-.728.754-1.314a2.576,2.576,0,0,0-2.582-.919,2.906,2.906,0,0,0-2.325,1.313c-.22.471.029,1.187.653,1.138Z" transform="translate(-455.019 -182.929)" fill="#f7cb2d"/></g><g transform="translate(43.342 16.247)"><path d="M450.124,185.853a4.7,4.7,0,0,1-.962-1.3.968.968,0,0,0-1.761.742,2.235,2.235,0,0,0,2.411,1.719.627.627,0,0,0,.313-1.156Z" transform="translate(-447.376 -184.086)" fill="#f7cb2d"/></g><path d="M471.254,189.14s-2.76-.24-3.361,4.2" transform="translate(-405.66 -168.239)" fill="none" stroke="#eb5772" stroke-linecap="round" stroke-miterlimit="10" stroke-width="0.4"/><path d="M471.425,191.57a3.107,3.107,0,0,0-2.88-.361" transform="translate(-405.712 -168.389)" fill="none" stroke="#eb5772" stroke-linecap="round" stroke-miterlimit="10" stroke-width="0.4"/><path d="M459.748,285.389a1.441,1.441,0,1,0-1.441,1.44A1.441,1.441,0,0,0,459.748,285.389Z" transform="translate(-404.786 -175.751)" fill="#f7cb2d"/><path d="M433.794,277.692h46.451l-.4,3.651H434.138Z" transform="translate(-402.958 -175.256)" fill="#6c88ef"/></g><g transform="translate(1456.613 716.583)"><path d="M170.442,409.818s-3.856-17.731,17.44-32.35Z" transform="translate(-170.169 -377.468)" fill="#f7cb2d"/><path d="M170.394,410.039s17.271-7.154,17.44-32.35Z" transform="translate(-170.232 -377.529)" fill="#f7aa2d"/></g><g transform="translate(1435.726 716.583)"><path d="M158.677,409.818s3.856-17.731-17.44-32.35Z" transform="translate(-141.237 -377.468)" fill="#f7aa2d"/><path d="M158.831,410.039s-17.271-7.154-17.44-32.35Z" transform="translate(-141.28 -377.529)" fill="#f7cb2d"/></g><g transform="translate(1447.417 696.595)"><path d="M164.959,400.822s-16.936-19.631,0-51.041Z" transform="translate(-157.432 -349.781)" fill="#f7cb2d"/><path d="M167.814,401.193s16.936-19.631,0-51.042Z" transform="translate(-160.319 -349.884)" fill="#f7aa2d"/></g><path d="M147.005,417.021h30.861s0,24.08-15.431,24.08S147.005,417.021,147.005,417.021Z" transform="translate(1292.885 328.116)" fill="#100c82"/><g transform="translate(1136.865 472.217)" opacity="0.09"><path d="M1166.854,395.153l1.435-4.3a.479.479,0,0,1,.807-.173l3.992,4.324a.479.479,0,0,0,.8-.159l2.393-6.5a.479.479,0,0,1,.825-.132l5.392,6.83a.478.478,0,0,0,.78-.041l4.712-7.46" transform="translate(-1166.854 -387.332)" fill="none" stroke="#4c65ba" stroke-linecap="round" stroke-miterlimit="10" stroke-width="2"/><path d="M1195.561,387.657l1.691-.423v1.691" transform="translate(-1175.904 -387.235)" fill="none" stroke="#4c65ba" stroke-linecap="round" stroke-miterlimit="10" stroke-width="2"/></g><g transform="translate(1329.116 738.386)" opacity="0.1"><path d="M1166.854,395.153l1.435-4.3a.479.479,0,0,1,.807-.173l3.992,4.324a.479.479,0,0,0,.8-.159l2.393-6.5a.479.479,0,0,1,.825-.132l5.392,6.83a.478.478,0,0,0,.78-.041l4.712-7.46" transform="translate(-1166.854 -387.332)" fill="none" stroke="#4c65ba" stroke-linecap="round" stroke-miterlimit="10" stroke-width="2"/><path d="M1195.561,387.657l1.691-.423v1.691" transform="translate(-1175.904 -387.235)" fill="none" stroke="#4c65ba" stroke-linecap="round" stroke-miterlimit="10" stroke-width="2"/></g><ellipse cx="6.573" cy="6.573" rx="6.573" ry="6.573" transform="translate(1384.231 445.904)" fill="#ff6a6a" opacity="0.43"/><path d="M234.789,433.167l-3.628.315-16.68,10.966,12.81-17.465,7.883,2.464Z" transform="translate(927.012 327.948)" fill="#100c82"/><path d="M286.279,411.257s.474-7.174-10.593-8.42-23.771,1.514-23.771,1.514l5.619,11.007Z" transform="translate(924.047 329.887)" fill="#4e69d1"/><path d="M241.552,441.431l-4.024.349-18.5,12.164,14.209-19.373,8.745,2.733Z" transform="translate(926.652 327.347)" fill="#100c82"/><path d="M248.312,393.5l9.231,15.951s29.2-5.787,36.377,2.408-1.424,21.518-22.771,25.251-30.669,4.66-30.669,4.66l-1.54-7.821s-21.227,1.94-13.255-40.759C225.684,393.188,232.637,397.092,248.312,393.5Z" transform="translate(926.267 330.625)" fill="#6c88ef"/><path d="M285.7,428.486s-21.633,8.828-45.3,8.806" transform="translate(924.959 327.829)" fill="none" stroke="#4e69d1" stroke-miterlimit="10" stroke-width="0.5"/><path d="M256.768,326.906a38.487,38.487,0,0,1-1.867,3.881l.02,3.936-3.5.066-.794-4.892s.134-5.868-.013-9.49c-.081-2.014,4.177-4.91,6.748-5.968,1.528-.629-.5,2.608-2.876,4.4A44.5,44.5,0,0,0,256.768,326.906Z" transform="translate(924.15 336.871)" fill="#ff979c"/><path d="M291.311,328.779a38.587,38.587,0,0,0,2.371,3.6l.507,3.9,3.481-.4.131-4.954s-.921-5.8-1.26-9.407c-.189-2.006-4.8-4.305-7.488-5.011-1.6-.418.846,2.517,3.439,3.971A44.47,44.47,0,0,1,291.311,328.779Z" transform="translate(921.144 336.704)" fill="#ff979c"/><g transform="translate(1177.826 636.033)"><rect width="36.103" height="30.205" transform="translate(1.995 0) rotate(3.787)" fill="#fff"/><g transform="translate(8.375 8.011)"><path d="M271.89,306.575a8.3,8.3,0,1,1-8.835,7.738l8.286.549Z" transform="translate(-263.035 -306.557)" fill="#451fad"/><path d="M279.324,312.6a8.3,8.3,0,1,1-10.27-5.695l2.287,7.983Z" transform="translate(-263.035 -306.583)" fill="#d3196a"/><path d="M279.627,315.408a8.3,8.3,0,1,1-7.737-8.835l-.549,8.287Z" transform="translate(-263.035 -306.555)" fill="#f7cb2d"/></g><rect width="4.731" height="0.824" rx="0.39" transform="translate(31.293 6.999) rotate(3.787)" fill="#b6c3f4"/><rect width="4.731" height="0.824" rx="0.39" transform="matrix(0.998, 0.066, -0.066, 0.998, 31.149, 9.166)" fill="#b6c3f4"/><rect width="4.731" height="0.824" rx="0.39" transform="translate(31 11.421) rotate(3.788)" fill="#b6c3f4"/><path d="M286.73,305.775a.626.626,0,1,0-.666.583A.625.625,0,0,0,286.73,305.775Z" transform="translate(-256.439 -298.429)" fill="#d3196a"/><path d="M286.574,308.128a.626.626,0,1,0-.666.584A.626.626,0,0,0,286.574,308.128Z" transform="translate(-256.426 -298.616)" fill="#451fad"/><path d="M286.412,310.577a.626.626,0,1,0-.666.584A.626.626,0,0,0,286.412,310.577Z" transform="translate(-256.413 -298.81)" fill="#f7cb2d"/></g><path d="M293.773,332.611a91.181,91.181,0,0,0-5.3-9.614c-1.907-2.59.324-2.943,2.639-.921,2.871,2.508,4.464,1.777,4.464,1.777l.071,4.341Z" transform="translate(921.207 336.363)" fill="#ff979c"/><path d="M255.121,331.9a91.357,91.357,0,0,1,3.964-10.238c1.543-2.822-.715-2.873-2.738-.559-2.509,2.871-4.185,2.36-4.185,2.36l.512,4.31Z" transform="translate(924.027 336.468)" fill="#ff979c"/><path d="M255.005,332.567s2.738,15.538-9.412,20.158l-6.288-6.71c6.228-3.357,7.989-7.936,8.693-12.867Z" transform="translate(925.046 335.428)" fill="#451fad"/><path d="M210.6,306.792c-3.356-.765-6.916.736-7.916,4.5-.9,3.372.821,7.042.347,10.532-.422,3.1-2.468,5.492-4.322,7.767s-3.72,4.974-3.633,8.119c.08,2.882,2.044,5.574,4.489,6.151.732.172,1.489.174,2.212.39,2.945.882,4.3,4.89,4.5,8.4s-.284,7.185.924,10.423a11.34,11.34,0,0,0,12.468,7.031c5.472-1.08,9.732-6.352,15.178-7.585,1.842-.417,3.745-.351,5.607-.645a7.372,7.372,0,0,0,4.983-2.678c1.214-1.658,1.531-3.969,2.535-5.809,1.326-2.432,3.722-3.824,5.2-6.135a10.337,10.337,0,0,0,.771-9.074c-1.456-3.625-4.951-6.134-5.4-10.087-.29-2.562.811-5,1.529-7.433a21.513,21.513,0,0,0,.221-11.859c-1.1-3.832-4.035-9.675-11.426-10.912-4.643-.778-10.066,1.436-18.524-.087-5.524-1-8.176,2.8-9.742,8.994" transform="translate(928.55 338.196)" fill="#fb5353"/><path d="M235.457,347.561s-2.865-3.287-2.437-12.414c0,0,6.735-1.512,7-6.782a63.383,63.383,0,0,0-1.588-14.714s-.172-2.943-4.4-4.118-14.08.015-14.786,3.708.6,9.772.6,9.772a4.437,4.437,0,0,0-5.3-1.3c-3.271,1.419.633,12.118,6.032,6.915,0,0,5.118,14.725.519,15.763,0,0,1.669,8.814,11.326,6.893S235.457,347.561,235.457,347.561Z" transform="translate(927.103 337.288)" fill="#ff979c"/><path d="M235.226,320.113a7.922,7.922,0,0,0,1.648,3.03c.886.99.718,1.78-.873,2.662" transform="translate(925.369 336.415)" fill="none" stroke="#fb5353" stroke-linecap="round" stroke-miterlimit="10" stroke-width="0.4"/><g transform="translate(1155.754 656.351)"><path d="M230.592,319.95c.352.115.457.607.509.953a4.353,4.353,0,0,1,.058,1.253.5.5,0,0,1-.963.131c-.185-.459-.555-2.646.4-2.337Z" transform="translate(-229.968 -319.921)" fill="#fb5353"/></g><g transform="translate(1161.994 655.497)"><path d="M237.25,319c.4.1.519.5.611.894a4.254,4.254,0,0,1,.139,1.325.5.5,0,0,1-.963.131,4.143,4.143,0,0,1-.29-1.43c-.013-.311.042-1.032.5-.92Z" transform="translate(-236.745 -318.993)" fill="#fb5353"/></g><path d="M215.45,324.815s2.679-.779,4.143,3.488" transform="translate(926.936 336.047)" fill="none" stroke="#fb5353" stroke-linecap="round" stroke-miterlimit="10" stroke-width="0.4"/><path d="M215.807,327.21a3.127,3.127,0,0,1,2.774-.921" transform="translate(926.907 335.928)" fill="none" stroke="#fb5353" stroke-linecap="round" stroke-miterlimit="10" stroke-width="0.4"/><path d="M234.915,328.9a8.4,8.4,0,0,1-4.668-1.946" transform="translate(925.763 335.873)" fill="none" stroke="#fb5353" stroke-linecap="round" stroke-miterlimit="10" stroke-width="0.4"/><g transform="translate(1152.582 651.944)"><path d="M227.065,317.589a3.912,3.912,0,0,1,3.516-.816.647.647,0,0,0,.5-1.177,3.048,3.048,0,0,0-4.542,1.684.32.32,0,0,0,.529.308Z" transform="translate(-226.524 -315.134)" fill="#fb5353"/></g><g transform="translate(1160.399 651.337)"><path d="M238.341,315.776a1.866,1.866,0,0,0-3.155-.715.649.649,0,0,0,.626,1.076,3.442,3.442,0,0,1,2.14.029.321.321,0,0,0,.389-.39Z" transform="translate(-235.014 -314.476)" fill="#fb5353"/></g><path d="M240.634,304.644c.255,1.8-1.6,4.846-3.312,5.465-3.582,1.294-7.622-.936-11.015.794a8.853,8.853,0,0,0-4.715,8.023c.068,1.865.727,3.8.048,5.541a14.122,14.122,0,0,1-3-5.224l.994-13.087Z" transform="translate(926.683 337.641)" fill="#fb5353"/><path d="M249.666,364.972a100.51,100.51,0,0,1-2.121,24.576s-14.619,5.658-22.628-.31c0,0-8.484-14.985-10.293-27.183C212.31,346.464,219,327.844,249.666,364.972Z" transform="translate(927.034 334.576)" fill="#451fad"/><path d="M222.626,341.021a30.574,30.574,0,0,0,10.035.845,21.614,21.614,0,0,1,18.045,6.416c6.193,6.013,9.015,7.847,18.054,7.113,6.984-.567,14.427-8.05,17.614-21.219l6.66.441S290.7,385.408,243.4,365.3c0,0-23.56,4.258-26.351,1.6S209.347,339.977,222.626,341.021Z" transform="translate(927.066 335.301)" fill="#451fad"/></g><path d="M259.086,159.51a9.4,9.4,0,1,0-3.223-18.383,14.978,14.978,0,0,0-29.073-.168,9.4,9.4,0,1,0-2.814,18.535" transform="translate(1034.887 201.989)" fill="#fb5353" opacity="0.64"/></g></svg>